<svg width="1440" height="288" viewBox="0 0 1440 288" fill="none" xmlns="http://www.w3.org/2000/svg">
<path d="M1440 256L1392 224C1344 192 1248 128 1152 101.3C1056 75 960 85 864 79.9999C768 74.9999 672 52.9999 576 42.6999C480 31.9999 384 31.9999 288 74.6999C192 117 96 203 48 245.3L0 288L2.51778e-05 -0.000125889L48 -0.000121693C96 -0.000117496 192 -0.000109104 288 -0.000100711C384 -9.23185e-05 480 -8.39259e-05 576 -7.55333e-05C672 -6.71407e-05 768 -5.87481e-05 864 -5.03555e-05C960 -4.19629e-05 1056 -3.35703e-05 1152 -2.51778e-05C1248 -1.67852e-05 1344 -8.39259e-06 1392 -4.19629e-06L1440 0L1440 256Z" fill="#EEE7D7"/>
</svg>
