<?xml version="1.0" encoding="utf-8"?>
<!-- Generator: Adobe Illustrator 26.2.1, SVG Export Plug-In . SVG Version: 6.00 Build 0)  -->
<svg version="1.1" id="Layer_1" xmlns="http://www.w3.org/2000/svg" xmlns:xlink="http://www.w3.org/1999/xlink" x="0px" y="0px"
	 viewBox="0 0 1440 158" style="enable-background:new 0 0 1440 158;" xml:space="preserve">
<style type="text/css">
	.st0{fill:#FCFCF7;}
	.st1{fill:#EEE7D7;}
</style>
<rect class="st0" width="1440" height="158"/>
<path class="st1" d="M0,92l48-5.3C96,81,192,71,288,54.7C384,39,480,17,576,6.7C672-4,768-4,864,22.7C960,49,1056,103,1152,108
	s192-37,240-58.7l48-21.3v130h-48c-48,0-144,0-240,0s-192,0-288,0s-192,0-288,0s-192,0-288,0s-192,0-240,0H0V92z"/>
</svg>
