<svg width="1440" height="284" viewBox="0 0 1440 284" fill="none" xmlns="http://www.w3.org/2000/svg">
<rect width="1440" height="158" fill="#FCFCF7"/>
<path d="M0 91.9878L48 86.6878C96 80.9878 192 70.9878 288 54.6878C384 38.9878 480 16.9878 576 6.68777C672 -4.01223 768 -4.01223 864 22.6878C960 48.9878 1056 102.988 1152 107.988C1248 112.988 1344 70.9878 1392 49.2878L1440 27.9878V283.988H1392C1344 283.988 1248 283.988 1152 283.988C1056 283.988 960 283.988 864 283.988C768 283.988 672 283.988 576 283.988C480 283.988 384 283.988 288 283.988C192 283.988 96 283.988 48 283.988H0V91.9878Z" fill="#EEE7D7"/>
</svg>
