<svg width="1440" height="198" viewBox="0 0 1440 198" fill="none" xmlns="http://www.w3.org/2000/svg">
<path d="M1440 102L1392 102C1344 102 1248 102 1152 96.7001C1056 91.0001 960 81.0001 864 91.3001C768 102 672 134 576 139.3C480 145 384 123 288 128.7C192 134 96 166 48 182L0 198L1.73097e-05 -3.81849e-06L48 3.77808e-07C96 4.5741e-06 192 1.29667e-05 288 2.13593e-05C384 2.97519e-05 480 3.81444e-05 576 4.6537e-05C672 5.49296e-05 768 6.33222e-05 864 7.17148e-05C960 8.01074e-05 1056 8.85e-05 1152 9.68926e-05C1248 0.000105285 1344 0.000113678 1392 0.000117874L1440 0.00012207L1440 102Z" fill="#EEE7D7"/>
</svg>
