<svg width="30" height="31" viewBox="0 0 30 31" fill="none" xmlns="http://www.w3.org/2000/svg">
<path d="M27 4.3696V25.7178C27 26.4517 26.4054 27.041 25.6768 27.041H19.5589V17.7517H22.6768L23.1429 14.1303H19.5536V11.816C19.5536 10.766 19.8429 10.0535 21.3482 10.0535H23.2661V6.81246C22.9339 6.7696 21.7982 6.66782 20.4696 6.66782C17.7054 6.66782 15.8089 8.35532 15.8089 11.4571V14.1303H12.6804V17.7517H15.8089V27.0464H4.32321C3.59464 27.0464 3 26.4517 3 25.7232V4.3696C3 3.64103 3.59464 3.04639 4.32321 3.04639H25.6714C26.4054 3.04639 27 3.64103 27 4.3696Z" fill="#2D7A86"/>
</svg>
