<svg width="30" height="31" viewBox="0 0 30 31" fill="none" xmlns="http://www.w3.org/2000/svg">
<path d="M15.0054 8.89309C11.5994 8.89309 8.85206 11.6404 8.85206 15.0464C8.85206 18.4524 11.5994 21.1997 15.0054 21.1997C18.4114 21.1997 21.1587 18.4524 21.1587 15.0464C21.1587 11.6404 18.4114 8.89309 15.0054 8.89309ZM15.0054 19.0468C12.8043 19.0468 11.0049 17.2528 11.0049 15.0464C11.0049 12.84 12.799 11.0459 15.0054 11.0459C17.2118 11.0459 19.0058 12.84 19.0058 15.0464C19.0058 17.2528 17.2064 19.0468 15.0054 19.0468ZM22.8456 8.64139C22.8456 9.43934 22.2029 10.0766 21.4104 10.0766C20.6124 10.0766 19.9751 9.43398 19.9751 8.64139C19.9751 7.8488 20.6178 7.20615 21.4104 7.20615C22.2029 7.20615 22.8456 7.8488 22.8456 8.64139ZM26.921 10.098C26.83 8.17547 26.3908 6.47247 24.9824 5.06937C23.5793 3.66627 21.8763 3.22713 19.9537 3.13073C17.9722 3.01827 12.0331 3.01827 10.0517 3.13073C8.13444 3.22177 6.43144 3.66091 5.02298 5.06401C3.61453 6.46712 3.18074 8.17012 3.08435 10.0927C2.97188 12.0742 2.97188 18.0132 3.08435 19.9947C3.17539 21.9173 3.61453 23.6203 5.02298 25.0234C6.43144 26.4265 8.12909 26.8656 10.0517 26.962C12.0331 27.0745 17.9722 27.0745 19.9537 26.962C21.8763 26.871 23.5793 26.4319 24.9824 25.0234C26.3855 23.6203 26.8246 21.9173 26.921 19.9947C27.0335 18.0132 27.0335 12.0795 26.921 10.098ZM24.3612 22.1208C23.9434 23.1705 23.1348 23.9791 22.0798 24.4022C20.4999 25.0288 16.7512 24.8842 15.0054 24.8842C13.2595 24.8842 9.50541 25.0234 7.93094 24.4022C6.88129 23.9845 6.07263 23.1758 5.64956 22.1208C5.02298 20.541 5.16758 16.7922 5.16758 15.0464C5.16758 13.3005 5.02834 9.54644 5.64956 7.97197C6.06728 6.92232 6.87593 6.11366 7.93094 5.69059C9.51077 5.06401 13.2595 5.20861 15.0054 5.20861C16.7512 5.20861 20.5053 5.06937 22.0798 5.69059C23.1294 6.10831 23.9381 6.91697 24.3612 7.97197C24.9877 9.5518 24.8431 13.3005 24.8431 15.0464C24.8431 16.7922 24.9877 20.5463 24.3612 22.1208Z" fill="#2D7A86"/>
</svg>
