<svg width="30" height="31" viewBox="0 0 30 31" fill="none" xmlns="http://www.w3.org/2000/svg">
<path d="M25.9998 13.0075C23.9361 13.0124 21.923 12.3688 20.2449 11.1677V19.5452C20.2444 21.0968 19.7701 22.6112 18.8856 23.886C18.0011 25.1608 16.7484 26.1352 15.2952 26.6788C13.842 27.2225 12.2574 27.3096 10.7533 26.9283C9.24929 26.5471 7.89748 25.7158 6.87865 24.5456C5.85982 23.3753 5.22254 21.9219 5.05202 20.3797C4.8815 18.8375 5.18587 17.28 5.92444 15.9155C6.663 14.5509 7.80055 13.4444 9.18498 12.7438C10.5694 12.0432 12.1347 11.7819 13.6716 11.995V16.2086C12.9684 15.9874 12.2131 15.994 11.5139 16.2276C10.8146 16.4612 10.207 16.9098 9.77787 17.5093C9.34875 18.1088 9.12002 18.8286 9.12436 19.5658C9.12871 20.3031 9.36589 21.0201 9.80205 21.6145C10.2382 22.2089 10.851 22.6503 11.553 22.8757C12.255 23.101 13.0102 23.0988 13.7109 22.8693C14.4115 22.6398 15.0217 22.1948 15.4544 21.5978C15.887 21.0008 16.1199 20.2824 16.1199 19.5452V3.16797H20.2449C20.2421 3.51632 20.2712 3.86419 20.3321 4.20719V4.20719C20.4755 4.97288 20.7735 5.70128 21.208 6.34784C21.6425 6.9944 22.2043 7.54553 22.8591 7.9675C23.7907 8.58348 24.8829 8.9118 25.9998 8.91156V13.0075Z" fill="#2D7A86"/>
</svg>
