<svg width="30" height="31" viewBox="0 0 30 31" fill="none" xmlns="http://www.w3.org/2000/svg">
<path d="M3.75 10.167L13.6125 16.742C14.0233 17.0161 14.5061 17.1624 15 17.1624C15.4939 17.1624 15.9767 17.0161 16.3875 16.742L26.25 10.167M6.25 23.917H23.75C24.413 23.917 25.0489 23.6536 25.5178 23.1848C25.9866 22.7159 26.25 22.08 26.25 21.417V8.91699C26.25 8.25395 25.9866 7.61807 25.5178 7.14923C25.0489 6.68038 24.413 6.41699 23.75 6.41699H6.25C5.58696 6.41699 4.95107 6.68038 4.48223 7.14923C4.01339 7.61807 3.75 8.25395 3.75 8.91699V21.417C3.75 22.08 4.01339 22.7159 4.48223 23.1848C4.95107 23.6536 5.58696 23.917 6.25 23.917Z" stroke="#2D7A86" stroke-width="1.60092" stroke-linecap="round" stroke-linejoin="round"/>
</svg>
