<svg width="30" height="31" viewBox="0 0 30 31" fill="none" xmlns="http://www.w3.org/2000/svg">
<path d="M27 15.0464C27 21.6754 21.629 27.0464 15 27.0464C13.7613 27.0464 12.571 26.8577 11.4484 26.5093C11.9371 25.7109 12.6677 24.4045 12.9387 23.3641C13.0839 22.8028 13.6839 20.5093 13.6839 20.5093C14.0758 21.2545 15.2177 21.8883 16.4323 21.8883C20.0516 21.8883 22.6597 18.5593 22.6597 14.4222C22.6597 10.4593 19.4226 7.49316 15.2613 7.49316C10.0839 7.49316 7.33065 10.9674 7.33065 14.7561C7.33065 16.5174 8.26935 18.7093 9.76452 19.4061C9.99194 19.5125 10.1129 19.4641 10.1661 19.2464C10.2048 19.0819 10.4081 18.2641 10.5 17.8867C10.529 17.7657 10.5145 17.6593 10.4177 17.5432C9.92903 16.9383 9.53226 15.8351 9.53226 14.8045C9.53226 12.1577 11.5355 9.598 14.9516 9.598C17.8984 9.598 19.9645 11.6061 19.9645 14.4803C19.9645 17.727 18.3242 19.977 16.1903 19.977C15.0145 19.977 14.129 19.0045 14.4145 17.8093C14.7532 16.3819 15.4065 14.8432 15.4065 13.8125C15.4065 12.8932 14.9129 12.1238 13.8871 12.1238C12.6823 12.1238 11.7145 13.3674 11.7145 15.0367C11.7145 16.1012 12.0726 16.8174 12.0726 16.8174C12.0726 16.8174 10.8871 21.8399 10.6694 22.7786C10.4274 23.8141 10.5242 25.2754 10.6258 26.2238C6.16452 24.477 3 20.1319 3 15.0464C3 8.41735 8.37097 3.04639 15 3.04639C21.629 3.04639 27 8.41735 27 15.0464Z" fill="#2D7A86"/>
</svg>
