<svg id="Layer_1" data-name="Layer 1" xmlns="http://www.w3.org/2000/svg" viewBox="0 0 1453.09 1440.58"><defs><style>.cls-1{fill:#307b84;}</style></defs><title>Artboard 13</title><path class="cls-1" d="M1196.42,732.38a6.41,6.41,0,0,0-.83-1.37A6.41,6.41,0,0,1,1196.42,732.38Z"/><path class="cls-1" d="M1194.48,730a11.23,11.23,0,0,0-5.34-1.72A11.23,11.23,0,0,1,1194.48,730Z"/><path class="cls-1" d="M1200.34,787.13c-.15-.16-.3-.32-.44-.5C1200,786.81,1200.19,787,1200.34,787.13Z"/><path class="cls-1" d="M1161.31,727.92q-18.37.08-36.74.16Q1142.93,728,1161.31,727.92Z"/><path class="cls-1" d="M1207.93,789.92l-1.31-.14Z"/><path class="cls-1" d="M1203.46,789.06a8.34,8.34,0,0,1-.8-.33A8.34,8.34,0,0,0,1203.46,789.06Z"/><path class="cls-1" d="M1200.39,787.18h0Z"/><path class="cls-1" d="M1198.85,442.52q4.86-12.37,9.65-24.77Q1203.69,430.14,1198.85,442.52Z"/><path class="cls-1" d="M1221.31,790.12h0Z"/><path class="cls-1" d="M1192.32,459q3.3-8.22,6.53-16.47Q1195.61,450.77,1192.32,459Z"/><path class="cls-1" d="M1225.76,379.63a3.61,3.61,0,0,1,2-.83A3.61,3.61,0,0,0,1225.76,379.63Z"/><path class="cls-1" d="M1103.34,728.12c-.95,0-1.9,0-2.85-.1C1101.44,728.07,1102.39,728.1,1103.34,728.12Z"/><path class="cls-1" d="M1088.75,721.56c0-.26,0-.53,0-.82C1088.75,721,1088.75,721.3,1088.75,721.56Z"/><path class="cls-1" d="M1106.19,728.14q9.19,0,18.38-.06-9.19,0-18.38.06Z"/><path class="cls-1" d="M1100.49,728c-1,0-1.9-.11-2.84-.21C1098.59,727.91,1099.54,728,1100.49,728Z"/><path class="cls-1" d="M1244.47,782a12.44,12.44,0,0,1-.5,2.12A12.44,12.44,0,0,0,1244.47,782Z"/><path class="cls-1" d="M1254.29,728.31l-1.46.13Z"/><path class="cls-1" d="M1252.68,728.46a13.67,13.67,0,0,0-2.85.6A13.67,13.67,0,0,1,1252.68,728.46Z"/><path class="cls-1" d="M1257,728.22l-1.82,0Z"/><path class="cls-1" d="M1248.75,729.52a5.7,5.7,0,0,0-.81.54A5.7,5.7,0,0,1,1248.75,729.52Z"/><path class="cls-1" d="M1321,728.17h0Z"/><path class="cls-1" d="M1304.82,728.19h0l-23.44,0Z"/><path class="cls-1" d="M1281.38,728.17c-7.82,0-15.63,0-23.45,0C1265.75,728.17,1273.56,728.17,1281.38,728.17Z"/><path class="cls-1" d="M1227.81,378.79a3.26,3.26,0,0,1,1.53.33A3.26,3.26,0,0,0,1227.81,378.79Z"/><path class="cls-1" d="M1230.1,790.07l-5.86,0Z"/><path class="cls-1" d="M1247.42,730.54a4.69,4.69,0,0,0-.46.54A4.69,4.69,0,0,1,1247.42,730.54Z"/><path class="cls-1" d="M1244,784.16a7.84,7.84,0,0,1-.74,1.63A7.84,7.84,0,0,0,1244,784.16Z"/><path class="cls-1" d="M1244.84,772q0,3-.07,5.94Q1244.86,774.92,1244.84,772Z"/><path class="cls-1" d="M1247,731.08a5.5,5.5,0,0,0-.36.57A5.5,5.5,0,0,1,1247,731.08Z"/><path class="cls-1" d="M1245.45,735.44c-.08.48-.14,1-.2,1.52C1245.31,736.42,1245.37,735.92,1245.45,735.44Z"/><path class="cls-1" d="M1245.73,734a2,2,0,0,0,0,.24A2,2,0,0,1,1245.73,734Z"/><path class="cls-1" d="M1218.79,391.54a60.94,60.94,0,0,1,5.12-9.77A60.94,60.94,0,0,0,1218.79,391.54Z"/><path class="cls-1" d="M1198,755.8c0,3.69-.06,7.39-.12,11.09.06-3.7.13-7.4.12-11.09Z"/><path class="cls-1" d="M1197.83,766.89c-.07,3.69-.12,7.39-.09,11.08,0,.54,0,1,0,1.54,0-.49,0-1,0-1.54C1197.71,774.28,1197.76,770.58,1197.83,766.89Z"/><path class="cls-1" d="M1181.74,727.84c2.06,0,4.12.08,6.17.26l1.23.13-1.23-.13C1185.86,727.92,1183.8,727.86,1181.74,727.84Z"/><path class="cls-1" d="M1230.1,790.07H1233l.48,0-.48,0Z"/><path class="cls-1" d="M1194.48,730a5.58,5.58,0,0,1,1.11,1.06A5.58,5.58,0,0,0,1194.48,730Z"/><path class="cls-1" d="M1218.79,391.54c-.21.48-.4,1-.6,1.46q-4.89,12.35-9.69,24.75,4.82-12.39,9.69-24.75C1218.39,392.51,1218.58,392,1218.79,391.54Z"/><path class="cls-1" d="M1326.36,728.16h0Z"/><path class="cls-1" d="M1304.82,728.17h0Z"/><path class="cls-1" d="M1234.93,790l-.88.07.88-.07c3.79-.44,6.3-1.46,7.83-3.45C1241.23,788.49,1238.72,789.51,1234.93,790Z"/><path class="cls-1" d="M1244.84,771.94c0-2.64,0-5.28,0-7.91C1244.8,766.66,1244.84,769.3,1244.84,771.94Z"/><path class="cls-1" d="M1278.43,496.3q-21.26-53.88-42.52-107.74c-.08-.19-.16-.37-.23-.56.07.19.15.37.23.56Q1257.18,442.43,1278.43,496.3Z"/><path class="cls-1" d="M1338.65,648.77q-8.88-22.35-17.72-44.72-21.26-53.88-42.5-107.75,21.24,53.88,42.5,107.75Q1329.77,626.42,1338.65,648.77Z"/><path class="cls-1" d="M1232,381.4c.35.44.68.9,1,1.37-.32-.47-.65-.93-1-1.37a7.76,7.76,0,0,0-2.65-2.28A7.76,7.76,0,0,1,1232,381.4Z"/><path class="cls-1" d="M1245.68,734.22c-.09.38-.17.79-.23,1.22C1245.51,735,1245.59,734.6,1245.68,734.22Z"/><path class="cls-1" d="M1244.86,746.45c0,1.95,0,3.91,0,5.86C1244.82,750.36,1244.83,748.4,1244.86,746.45Z"/><path class="cls-1" d="M1246.6,731.65a7.28,7.28,0,0,0-.57,1.29A7.28,7.28,0,0,1,1246.6,731.65Z"/><path class="cls-1" d="M1360.64,703.37c-1.43-3.29-2.87-6.58-4.2-9.91q-8.91-22.34-17.79-44.69,8.88,22.35,17.79,44.69C1357.77,696.79,1359.21,700.08,1360.64,703.37Z"/><path class="cls-1" d="M1246,732.94c-.11.33-.21.67-.3,1C1245.82,733.61,1245.92,733.27,1246,732.94Z"/><path class="cls-1" d="M1233,382.77a26.12,26.12,0,0,1,1.68,3A26.12,26.12,0,0,0,1233,382.77Z"/><path class="cls-1" d="M1244.82,755.24c0,2,0,3.91,0,5.86C1244.83,759.15,1244.82,757.19,1244.82,755.24Z"/><path class="cls-1" d="M1089.08,723.68a7,7,0,0,1-.29-1.36A7,7,0,0,0,1089.08,723.68Z"/><path class="cls-1" d="M1234.05,790l-.54,0Z"/><path class="cls-1" d="M1244.84,771.94h0Z"/><path class="cls-1" d="M1244.47,782a19.82,19.82,0,0,0,.22-2.18c0-.66.06-1.32.08-2,0,.65,0,1.31-.08,2A19.82,19.82,0,0,1,1244.47,782Z"/><path class="cls-1" d="M1364.45,725.81a5.35,5.35,0,0,0,1.14-1.08A5.35,5.35,0,0,1,1364.45,725.81Z"/><path class="cls-1" d="M1340.94,728.24c4.86,0,9.72,0,14.56-.3a25.69,25.69,0,0,0,6.77-1.07,25.69,25.69,0,0,1-6.77,1.07C1350.66,728.2,1345.8,728.25,1340.94,728.24Z"/><path class="cls-1" d="M1247.42,730.54a4,4,0,0,1,.52-.48A4,4,0,0,0,1247.42,730.54Z"/><path class="cls-1" d="M1366.67,721.81a6.14,6.14,0,0,1-.34,1.6A6.14,6.14,0,0,0,1366.67,721.81Z"/><path class="cls-1" d="M1366.33,723.41a4.5,4.5,0,0,1-.74,1.32A4.5,4.5,0,0,0,1366.33,723.41Z"/><path class="cls-1" d="M1364.79,713.29c-1-2.5-2-5-3.08-7.45,1.07,2.47,2.11,4.95,3.08,7.45,1.4,3.61,2.06,6.39,1.88,8.52C1366.85,719.68,1366.19,716.9,1364.79,713.29Z"/><path class="cls-1" d="M1227.76,378.8h0Z"/><path class="cls-1" d="M1252.83,728.44l-.15,0Z"/><path class="cls-1" d="M1321,728.17h0Z"/><path class="cls-1" d="M1234.67,385.74c.37.74.7,1.5,1,2.26C1235.37,387.24,1235,386.48,1234.67,385.74Z"/><path class="cls-1" d="M1249.83,729.06a6.62,6.62,0,0,0-.62.24A6.62,6.62,0,0,1,1249.83,729.06Z"/><path class="cls-1" d="M1207.93,789.92c.53,0,1.08.07,1.66.09,2,0,3.9.09,5.86.1-2,0-3.91-.05-5.86-.1C1209,790,1208.46,790,1207.93,789.92Z"/><path class="cls-1" d="M1161.31,727.92l18.38-.08h0Z"/><path class="cls-1" d="M1197.85,744.31c0-1.53-.11-3.06-.2-4.58C1197.74,741.25,1197.8,742.78,1197.85,744.31Z"/><path class="cls-1" d="M1089.64,724.82a5.41,5.41,0,0,0,2.67,2A5.41,5.41,0,0,1,1089.64,724.82Z"/><path class="cls-1" d="M1092.31,726.81a12.81,12.81,0,0,0,2.52.65l1.41.2-1.41-.2A12.81,12.81,0,0,1,1092.31,726.81Z"/><path class="cls-1" d="M1197.84,780.28c0-.25,0-.5,0-.77C1197.8,779.78,1197.82,780,1197.84,780.28Z"/><path class="cls-1" d="M1198,753.5c0-1.53,0-3.06,0-4.59C1197.94,750.44,1197.94,752,1198,753.5Z"/><path class="cls-1" d="M1088.79,722.32c0-.24,0-.5,0-.76C1088.76,721.82,1088.77,722.08,1088.79,722.32Z"/><path class="cls-1" d="M1198.1,782.31c-.11-.63-.2-1.3-.26-2C1197.9,781,1198,781.68,1198.1,782.31Z"/><path class="cls-1" d="M1089.64,724.82a5,5,0,0,1-.56-1.14A5,5,0,0,0,1089.64,724.82Z"/><path class="cls-1" d="M1106.19,728.14h0c-.94,0-1.89,0-2.85,0C1104.3,728.14,1105.25,728.14,1106.19,728.14Z"/><path class="cls-1" d="M1146.59,571.93l-6.48,16.16q-9.37,23.48-18.62,47,9.26-23.52,18.62-47Z"/><path class="cls-1" d="M1096.87,697.83q-3.09,7.84-6.16,15.69a38.4,38.4,0,0,0-1.4,4,38.4,38.4,0,0,1,1.4-4Q1093.78,705.68,1096.87,697.83Z"/><path class="cls-1" d="M1198,753.5v2.3h0Z"/><path class="cls-1" d="M1199.19,785.55a6.66,6.66,0,0,1-.45-1A6.66,6.66,0,0,0,1199.19,785.55Z"/><path class="cls-1" d="M1206.62,789.78a16.42,16.42,0,0,1-2.61-.54A16.42,16.42,0,0,0,1206.62,789.78Z"/><path class="cls-1" d="M1202.66,788.73a7.59,7.59,0,0,1-1.13-.61A7.59,7.59,0,0,0,1202.66,788.73Z"/><path class="cls-1" d="M1166.18,523.53q6.55-16.12,13.1-32.26Q1172.74,507.41,1166.18,523.53Z"/><path class="cls-1" d="M1218.38,790.13l-2.93,0Z"/><path class="cls-1" d="M1197.38,736.22c0,.39.09.8.12,1.22.06.76.11,1.52.15,2.29,0-.77-.09-1.53-.15-2.29C1197.47,737,1197.43,736.61,1197.38,736.22Z"/><path class="cls-1" d="M1200.37,787.17l0,0Z"/><path class="cls-1" d="M1225.76,379.63a6.48,6.48,0,0,0-.89.86A6.48,6.48,0,0,1,1225.76,379.63Z"/><path class="cls-1" d="M1201.53,788.12a7,7,0,0,1-1.14-.94A7,7,0,0,0,1201.53,788.12Z"/><path class="cls-1" d="M1199.9,786.63a7.46,7.46,0,0,1-.71-1.08A7.46,7.46,0,0,0,1199.9,786.63Z"/><path class="cls-1" d="M1096.87,697.83q9.23-23.52,18.45-47.06Q1106.08,674.31,1096.87,697.83Z"/><path class="cls-1" d="M1364.79,713.29c-1-2.5-2-5-3.08-7.45-.35-.83-.71-1.65-1.07-2.47-1.43-3.29-2.87-6.58-4.2-9.91q-8.91-22.34-17.79-44.69t-17.72-44.72q-21.26-53.88-42.5-107.75t-42.52-107.74c-.08-.19-.16-.37-.23-.56-.31-.76-.64-1.52-1-2.26a26.12,26.12,0,0,0-1.68-3c-.32-.47-.65-.93-1-1.37a7.76,7.76,0,0,0-2.65-2.28,3.26,3.26,0,0,0-1.53-.33h0a3.61,3.61,0,0,0-2,.83,6.48,6.48,0,0,0-.89.86,11.84,11.84,0,0,0-1,1.28,60.94,60.94,0,0,0-5.12,9.77c-.21.48-.4,1-.6,1.46q-4.89,12.35-9.69,24.75t-9.65,24.77q-3.24,8.25-6.53,16.47-6.49,16.15-13,32.28t-13.1,32.26q-9.83,24.19-19.59,48.4l-6.48,16.16q-9.37,23.48-18.62,47-3.09,7.83-6.17,15.68-9.24,23.54-18.45,47.06-3.09,7.84-6.16,15.69a38.4,38.4,0,0,0-1.4,4c-.12.46-.23.92-.31,1.38a16.3,16.3,0,0,0-.23,1.81c0,.29,0,.56,0,.82s0,.52,0,.76a7,7,0,0,0,.29,1.36,5,5,0,0,0,.56,1.14,5.41,5.41,0,0,0,2.67,2,12.81,12.81,0,0,0,2.52.65l1.41.2q.71.09,1.41.15c.94.1,1.89.16,2.84.21s1.9.08,2.85.1,1.91,0,2.85,0q9.19,0,18.38-.06,18.36-.06,36.74-.16l18.38-.08h2c2.06,0,4.12.08,6.17.26l1.23.13a11.23,11.23,0,0,1,5.34,1.72,5.58,5.58,0,0,1,1.11,1.06,6.41,6.41,0,0,1,.83,1.37,13.12,13.12,0,0,1,1,3.84c0,.39.09.8.12,1.22.06.76.11,1.52.15,2.29.09,1.52.15,3,.2,4.58s.06,3.07.08,4.6,0,3.06,0,4.59v2.3h0c0,3.69-.06,7.39-.12,11.09s-.12,7.39-.09,11.08c0,.54,0,1,0,1.54,0,.27,0,.52,0,.77.06.73.15,1.4.26,2a12.43,12.43,0,0,0,.64,2.27,6.66,6.66,0,0,0,.45,1,7.46,7.46,0,0,0,.71,1.08c.14.18.29.34.44.5l0,0h0a7,7,0,0,0,1.14.94,7.59,7.59,0,0,0,1.13.61,8.34,8.34,0,0,0,.8.33l.55.18a16.42,16.42,0,0,0,2.61.54l1.31.14c.53,0,1.08.07,1.66.09,2,0,3.9.09,5.86.1l2.93,0h5.86l5.86,0H1233l.48,0,.54,0,.88-.07c3.79-.44,6.3-1.46,7.83-3.45a6.71,6.71,0,0,0,.47-.71,7.84,7.84,0,0,0,.74-1.63,12.44,12.44,0,0,0,.5-2.12,19.82,19.82,0,0,0,.22-2.18c0-.66.06-1.32.08-2q.09-3,.07-5.94h0c0-2.64,0-5.28,0-7.91,0-1,0-1.95,0-2.93,0-2,0-3.91,0-5.86v-2.93c0-1.95,0-3.91,0-5.86s.08-3.9.16-5.85c0-1.36.13-2.56.23-3.64.06-.54.12-1,.2-1.52s.14-.84.23-1.22a2,2,0,0,1,0-.24c.09-.37.19-.71.3-1a7.28,7.28,0,0,1,.57-1.29,5.5,5.5,0,0,1,.36-.57,4.69,4.69,0,0,1,.46-.54,4,4,0,0,1,.52-.48,5.7,5.7,0,0,1,.81-.54l.46-.22a6.62,6.62,0,0,1,.62-.24,13.67,13.67,0,0,1,2.85-.6l.15,0,1.46-.13.84,0,1.82,0h1c7.82,0,15.63,0,23.45,0l23.44,0v0H1330c3.64,0,7.29.06,10.93.07,4.86,0,9.72,0,14.56-.3a25.69,25.69,0,0,0,6.77-1.07,8.68,8.68,0,0,0,2.18-1.06,5.35,5.35,0,0,0,1.14-1.08,4.5,4.5,0,0,0,.74-1.32,6.14,6.14,0,0,0,.34-1.6C1366.85,719.68,1366.19,716.9,1364.79,713.29Zm-74.55-33.11c-3.57.34-7.17.39-10.75.4q-26,0-51.93,0c-17.74,0-35.47,0-53.2,0a81.24,81.24,0,0,1-11.36-.68c-3.85-.57-5.07-2.43-4.35-6.24a39.56,39.56,0,0,1,2.34-7.2q15.15-37.89,30.37-75.75,15.39-38.46,30.74-77a32.14,32.14,0,0,1,2.44-5.13c2-3.18,4.33-3.31,6.38-.29a30.39,30.39,0,0,1,2.77,5.67c8.47,21.37,16.87,42.77,25.37,64.13q18,45.26,36.13,90.47c.31.79.6,1.58.87,2.38C1298.23,677.29,1296.87,679.56,1290.24,680.18Z"/><path class="cls-1" d="M638.63,1266.17c8.34-.74,14.42-1.51,20.52-1.78,15.83-.67,31.61-1.78,47.12-5.18q17.6-3.86,35.09-8.21c7.55-1.9,13.44-6.27,16.33-13.71a20.14,20.14,0,0,0-3.62-21.37c-5.26-6.19-12.16-9.08-20.35-7.46-5.79,1.14-11.52,2.61-17.19,4.24-25.21,7.27-51.09,9.09-77.1,8.83-30.26-.3-60.11-4.7-89.75-10.58-20.85-4.13-37.35-14.87-49.44-32.49a147.47,147.47,0,0,1-16.15-30c-6.57-16.88-6.33-33.35,3.33-49.21a51.34,51.34,0,0,0,5-10.19c2.51-7.45,1.94-14.78-3.63-20.75a22.4,22.4,0,0,0-21.23-7.09c-8.54,1.47-13.57,7.39-17.55,14.29-13.19,22.93-17,47.65-11.81,73.36,3.91,19.5,13.53,36.79,24.75,53,19.93,28.78,47.17,46.61,81.79,52.67q18.38,3.21,36.92,5.48C601.36,1262.35,621.08,1264.29,638.63,1266.17Z"/><path class="cls-1" d="M1062.71,1298.88c17.08-.21,34.18-.06,51.16-2.78,14.79-2.36,29.58-4.74,44-9a67.91,67.91,0,0,0,11.25-4.14c7.62-3.83,10.67-10.65,10.52-18.81s-3.44-14.68-10.91-18.71c-5.72-3.09-11.58-3.36-17.76-1.56-11.94,3.49-23.85,6.89-36.27,8.61-24.8,3.43-49.68,3.84-74.57,2.56-13.46-.69-26.87-2.71-40.24-4.54-10.64-1.45-21.27-3.14-31.75-5.42-21.06-4.58-37.15-16.42-48.82-34.52a150.69,150.69,0,0,1-16.42-33.44c-3-8.74-4.16-17.76-1.09-26.74,1.91-5.56,4.4-10.94,6.74-16.35,1.42-3.28,3.42-6.35,4.54-9.73,4.84-14.6-4.16-28-19.26-28.73-8.88-.44-15.59,3.81-20.11,11-14.76,23.51-20.26,49-14.47,76.35,4.26,20.12,13.69,38.15,25.54,54.73,17.23,24.08,39.43,41.39,68.86,48.52a374.65,374.65,0,0,0,42.2,8C1018.06,1297,1040.25,1299.55,1062.71,1298.88Z"/><path class="cls-1" d="M638.63,1266.17c-17.55-1.88-37.27-3.82-56.94-6.18q-18.53-2.23-36.92-5.48c-34.62-6.06-61.86-23.89-81.79-52.67-11.22-16.22-20.84-33.51-24.75-53-5.14-25.71-1.38-50.43,11.81-73.36,4-6.9,9-12.82,17.55-14.29a22.4,22.4,0,0,1,21.23,7.09c5.57,6,6.14,13.3,3.63,20.75a51.34,51.34,0,0,1-5,10.19c-9.66,15.86-9.9,32.33-3.33,49.21a147.47,147.47,0,0,0,16.15,30c12.09,17.62,28.59,28.36,49.44,32.49,29.64,5.88,59.49,10.28,89.75,10.58,26,.26,51.89-1.56,77.1-8.83,5.67-1.63,11.4-3.1,17.19-4.24,8.19-1.62,15.09,1.27,20.35,7.46a20.14,20.14,0,0,1,3.62,21.37c-2.89,7.44-8.78,11.81-16.33,13.71q-17.48,4.38-35.09,8.21c-15.51,3.4-31.29,4.51-47.12,5.18C653.05,1264.66,647,1265.43,638.63,1266.17Z"/><path class="cls-1" d="M1062.71,1298.88c-22.46.67-44.65-1.9-66.89-4.66a374.65,374.65,0,0,1-42.2-8c-29.43-7.13-51.63-24.44-68.86-48.52-11.85-16.58-21.28-34.61-25.54-54.73-5.79-27.33-.29-52.84,14.47-76.35,4.52-7.21,11.23-11.46,20.11-11,15.1.75,24.1,14.13,19.26,28.73-1.12,3.38-3.12,6.45-4.54,9.73-2.34,5.41-4.83,10.79-6.74,16.35-3.07,9-1.86,18,1.09,26.74a150.69,150.69,0,0,0,16.42,33.44c11.67,18.1,27.76,29.94,48.82,34.52,10.48,2.28,21.11,4,31.75,5.42,13.37,1.83,26.78,3.85,40.24,4.54,24.89,1.28,49.77.87,74.57-2.56,12.42-1.72,24.33-5.12,36.27-8.61,6.18-1.8,12-1.53,17.76,1.56,7.47,4,10.75,10.61,10.91,18.71s-2.9,15-10.52,18.81a67.91,67.91,0,0,1-11.25,4.14c-14.39,4.28-29.18,6.66-44,9C1096.89,1298.82,1079.79,1298.67,1062.71,1298.88Z"/><path class="cls-1" d="M1273.17,1097.2c-4-6.71-7.7-13.57-11.43-20.42q-42.21-77.62-84.36-155.29c-22.46-41.62-44.55-83.44-66.94-125.1-15.88-29.57-32-59-48-88.52q-30.62-56.54-61.18-113.09c-19.34-35.85-38.54-71.79-57.91-107.63Q908.75,423.09,874,359.09c-15.35-28.41-30.52-56.93-45.84-85.36C817,253.11,805.76,232.55,794.56,212q-30.73-56.46-61.49-112.9a23.91,23.91,0,0,0-3-4.8c-2.63-2.9-5.54-3-8.12,0a40.59,40.59,0,0,0-5.06,7.25q-18.35,33.27-36.51,66.65-32.24,59.6-64.27,119.3c-13.39,24.91-26.64,49.91-40.09,74.8C559.43,392.87,542.67,423.4,526.1,454c-9.75,18-19.18,36.18-28.93,54.18-18.3,33.79-36.78,67.48-55.1,101.25q-14.1,26-28.12,52L370,743.73l-.78,1.46c-5.37,9.82-11.11,19.44-16.41,29.29-18.61,34.58-37,69.26-55.65,103.83-12.72,23.6-25.72,47.05-38.51,70.61q-30.06,55.4-60,110.85c-5.43,10-10.77,20.08-16.35,30-3.34,6-3.61,11.77-1.25,18.18a27.58,27.58,0,0,0,15,16.34c8.26,3.7,16.62,7.43,25.27,10a234.69,234.69,0,0,0,81.4,9.18c16.73-1,32.47-5.11,46.43-14.85A96.25,96.25,0,0,0,374.31,1103c5.29-7.9,10.34-16,15.24-24.09,16.44-27.28,36.88-50.87,62.84-69.58,23.34-16.82,48.53-27.09,78-24.36a88.7,88.7,0,0,1,23.23,5.84,7,7,0,0,1,3.87,3.65c.82,2.57-1.83,3.42-3.59,4.47-3.09,1.82-6.28,3.49-9.35,5.34-20.47,12.36-30.29,31.39-32.44,54.39-2.49,26.6,5.13,51,18.88,73.59,15,24.61,36.69,40.52,64.46,47.8,8.74,2.29,17.84,3.25,26.82,4.53a83.4,83.4,0,0,0,15.74,1.18c11.16-.54,22.29-1.55,33.41-2.66,15.81-1.57,31.4-4.65,46.17-10.46,41.43-16.27,78.79-38.49,106.82-74.24,10.42-13.29,21.45-26.11,32.47-38.91,14.28-16.59,32.39-27.48,52.85-34.74,6.78-2.41,13.62-4.41,20.92-4.6,13.76-.35,27.49-.58,40.67,4.32a33.07,33.07,0,0,1,5.78,2.5c2.32,1.41,2.55,3.39.46,5.13a30.09,30.09,0,0,1-6.48,3.84,62.53,62.53,0,0,0-24.85,21c-14.56,20.54-17.07,43.38-11.56,67.13A155.55,155.55,0,0,0,946,1155.51c18.14,38.11,49.13,58.65,90.61,63.27,23.61,2.63,47.2,1.57,70.39-4.48,17.79-4.64,35.3-10,52-17.88a467.38,467.38,0,0,0,105.07-67.78,48.59,48.59,0,0,0,9.28-11.06C1277.5,1111,1277.21,1104,1273.17,1097.2ZM576.78,461.93q8.82-16.81,17.85-33.53Q621,379.67,647.4,331q17.91-33.13,35.72-66.33c9.35-17.49,18.48-35.1,27.89-52.57,3.19-5.94,6.73-11.72,10.46-17.34,2.82-4.25,5.24-4.18,8.41-.17a37.06,37.06,0,0,1,3.39,5.34Q761.16,251,789,302.22q39.12,72.42,78,145c1.7,3.16,3.12,6.47,4.84,9.61,2.88,5.28,2.12,10.14-1.4,14.76s-6.94,9.05-10.39,13.59c-6.25,8.24-12.31,16.63-18.78,24.7-5.4,6.75-7.39,7-15.12,3-3.54-1.85-6.86-4.12-10.27-6.23-8.25-5.09-16.52-10.17-24.74-15.33-3.81-2.39-7.43-1.13-10.77.69a61.85,61.85,0,0,0-8.2,5.9c-9.8,7.69-19.62,15.35-29.31,23.17-5,4-10,4.06-15.21.89-4.15-2.52-8.18-5.23-12.28-7.82-10.52-6.66-21-13.41-31.62-19.89-3-1.82-6.43-2.87-9.75-4.31-3.53,1.48-6.78,2.46-9.66,4.1-10.61,6.09-21,12.48-31.64,18.61-14.4,8.34-14.42,5.52-22.49-3.08-10.41-11.08-20.78-22.21-31.32-33.16C574.56,471.92,574,467.16,576.78,461.93Zm638,650.13c-8,5.92-16.06,11.68-24.39,17.06-21,13.54-42.82,25.48-66.2,34.35-18,6.83-36.45,11.49-55.89,12.8-15.69,1.06-30.7.08-45.48-5.27s-26.54-14.48-34.55-28.23a110.92,110.92,0,0,1-12.09-31.16,35.25,35.25,0,0,1,4-26.28c5.37-9.33,14.59-13.58,25.21-11.7,16.82,3,30.45,11.9,43,23a164.84,164.84,0,0,0,13.78,11.11c5.36,3.82,9.8,1.55,10.41-5.14a171.63,171.63,0,0,0,1-17.68c-.12-11,.13-22-1.28-32.82-1.73-13.25-9-23.86-19.23-32.48-24.42-20.52-52.51-33.73-83.28-41.09-9.32-2.23-19.25-1.88-28.89-2.71-31.41-1.69-58.14,11-83.89,26.59-11.45,6.94-21,16.11-30.38,25.67-13.09,13.32-23.87,28.46-35.95,42.55-19.48,22.72-42.34,41.12-69.84,53.46-15.86,7.12-32.22,12.7-49.42,15.32-17.78,2.7-35.57,3.64-53.61,1.1-28.62-4-47.13-19.93-57.59-46.23-4-10.12-7-20.4-5.09-31.46a47,47,0,0,1,2.14-8.56c4.53-11.82,15.31-17.69,27.95-15.23,11.14,2.17,21.45,6.32,30.35,13.54,6.39,5.2,12.74,10.45,19.12,15.66a55,55,0,0,0,5.48,4.29c6.14,3.87,10.79,1.67,11.55-5.49.51-4.82.93-9.67,1-14.52.28-12.84,1.31-25.68-2.16-38.4a54.88,54.88,0,0,0-15.14-25.86c-16.88-16.24-37.07-27-58.48-35.87-31.17-12.91-63.13-14.91-95.52-6-21.6,5.92-40.89,16.87-58.77,30.28-29.86,22.37-53.16,50.48-72.07,82.45-4.08,6.9-8.49,13.63-13,20.28-9.45,14.07-22.84,20.58-39.69,21s-33.76-.64-50.3-4.58a28.15,28.15,0,0,1-3.65-1c-4.57-1.83-5.71-4.28-4.1-9a31.8,31.8,0,0,1,2.17-4.57q40.85-75.48,81.68-151c11.42-21.17,22.47-42.55,33.85-63.75,7.08-13.21,14.6-26.19,21.71-39.38q40.41-75,80.7-150c6.6-12.26,13.54-24.36,20.17-36.61Q510,585.62,539.54,530.7c1.51-2.78,2.94-5.62,4.64-8.28,2.94-4.6,5.46-5.1,9.88-1.67a68.6,68.6,0,0,1,7.22,7q22.29,23.37,44.48,46.81c3.09,3.27,6.56,3.61,10.38,2.28a40.47,40.47,0,0,0,6.81-3.33c13.71-7.91,27.46-15.75,41-23.87,6.57-3.93,12.29-3.67,18.77.63,15.66,10.39,31.69,20.2,47.55,30.26,5.32,3.37,10.45,2.48,15.47-.61a42.42,42.42,0,0,0,4.11-3q14.7-11.54,29.36-23.12c8.71-6.88,10.57-7,20.24-1,11.1,6.94,22.32,13.71,33.16,21,11.64,7.85,16.36,6,24.29-4.45,12.13-16,24.17-32,36.36-48,6.4-8.36,8.45-8.21,14.06.58,1.47,2.32,2.76,4.74,4.07,7.16q23.67,43.71,47.32,87.44c12.1,22.49,24,45.09,36.13,67.58q29.58,54.9,59.34,109.73,26.4,48.72,52.89,97.41,21.87,40.35,43.64,80.78,31.18,57.64,62.37,115.29c1.9,3.53,3.69,7.13,5.25,10.82C1221.09,1104.68,1220.44,1107.87,1214.81,1112.06Z"/><path class="cls-1" d="M362.18,721.25c-.83-2.63-2.14-3.56-3.18-6.14-1.59-3.91-2.91-7.93-4.47-11.84-12.23-30.57-24.59-61.09-36.71-91.7q-38.6-97.41-77-194.9c-3-7.64-6.38-15.19-10.07-22.53-2.7-5.35-6.79-5.26-10.05-.16a29.17,29.17,0,0,0-2.41,5.15c-1.37,3.54-2.53,7.16-3.94,10.69q-26.9,67.33-53.82,134.65-35.75,89.7-71.35,179.45a35.4,35.4,0,0,0-2.31,7.21c-.69,4.25,1.15,6.81,5.47,7.56a68.37,68.37,0,0,0,11.31,1.12c23.66.09,47.33,0,71,0,12.86,0,14.3,1.49,14.38,14.07.08,11.41,0,22.82,0,34.23,0,10.46,3,13.43,13.68,13.58q9.18.13,18.38,0c12.79-.18,15.65-2.94,15.83-15.74.13-9.72-.08-19.44-.08-29.15,0-3,.06-5.92.32-8.86.46-5.24,2.17-7.24,7.28-7.89a93.75,93.75,0,0,1,11.38-.46c13.73,0,27.47,0,41.2,0v.24c21.65.47,38.14.28,46.27,0a29,29,0,0,0,12.19-3c2.67-1.35,5.53-2.84,6.94-6C364,727.12,362.82,723.25,362.18,721.25ZM287.3,691.83c-7.16.31-14.34.12-21.52.13H225.9v.22c-17.31,0-34.61,0-51.92,0a104.31,104.31,0,0,1-12.63-.59c-4-.51-5.29-2.69-4.4-6.67a29.93,29.93,0,0,1,1.33-4.22q11.86-30,23.77-60,18.72-47,37.52-94a47.54,47.54,0,0,1,2.85-6.34c2-3.45,4.69-3.56,6.67-.18a70.74,70.74,0,0,1,4.29,9.16c6.61,16.43,13.14,32.89,19.71,49.33q17.7,44.35,35.38,88.71c1.87,4.69,3.58,9.46,5.28,14.22C296.42,689.11,295,691.49,287.3,691.83Z"/></svg>