<svg id="Layer_1" data-name="Layer 1" xmlns="http://www.w3.org/2000/svg" viewBox="0 0 3856.93 798.17"><defs><style>.cls-1{fill:#307b84;}</style></defs><title>V2 Blue </title><path class="cls-1" d="M1775.62,421.21l1.69-.21c.79,2,1.72,3.92,2.35,5.94,1.16,3.75,2,7.58,3.22,11.32,7.15,22.68,14.45,45.32,21.51,68,5.66,18.23,12.06,36.15,22.75,52.36a88.3,88.3,0,0,0,9.28,11.86c3.32,3.53,7.73,5.45,12.89,4a11.94,11.94,0,0,0,9.11-10.3c1.08-8.16,2.42-16.44,2-24.59-1.19-22.45-2.47-44.87-1.39-67.35.1-2.06-.14-4.12-.11-6.18.23-18.34.35-36.69.79-55,.17-7.2,1.49-14.38,1.56-21.57.06-6.77-1-13.55-1.26-20.33-.44-10.91-.33-21.85-1-32.75a140.06,140.06,0,0,0-3-20.75,17.74,17.74,0,0,0-10.76-13.17c-6.12-2.56-10.12-.63-11.34,5.66a67.68,67.68,0,0,0-1.07,10.44q-.65,19.14-1,38.29c-.37,19-.33,37.94-1,56.89-.53,14.39-1.84,28.77-3,43.14-.18,2.28-1.4,4.5-2.28,7.14-4.76-1.86-5.57-5.47-6.64-8.64-7.16-21.16-14.39-42.31-21.12-63.59-2.85-9-4.5-18.43-6.8-27.63-3.39-13.61-7-27.18-10.29-40.81-2.34-9.71-8.48-16-18.14-19.36a52.25,52.25,0,0,0-6.85-1.9c-8.11-1.67-12.09,1.25-12.31,9.09-.12,4.33-.06,8.66,0,13,.68,25.95,1.67,51.89,2,77.84.19,15.64-.87,31.29-1,46.94-.18,20.82,0,41.65,0,62.47,0,10.72-.1,21.44.2,32.15.18,6.38,1.13,12.74,4.27,18.56,3.59,6.64,10.28,10.41,16.12,9.15s10-6.54,10.36-14.17c.62-11.71,1.34-23.44,1.23-35.16-.09-9.65-1.81-19.29-2-29-.33-21.63-.16-43.28-.09-64.92C1774.51,425.8,1775.23,423.51,1775.62,421.21Z"/><path class="cls-1" d="M1528.63,419.43c4,2,3.75,5,4.49,7.38,2.37,7.69,4.44,15.47,6.84,23.16,2.58,8.29,5.68,16.44,8,24.77,5.64,19.89,11.48,39.71,19.4,58.92,4.68,11.34,9.93,22.45,17.9,32.1a33.24,33.24,0,0,0,9.06,7.7c6.08,3.43,14.38.11,16-6.47,2.33-9.41,4.16-19,3.6-28.74-.6-10.28-1.41-20.56-1.55-30.85-.46-33.18-1.36-66.36.54-99.53.17-2.88.45-5.76.54-8.64.23-7.19.67-14.4.5-21.58q-.42-17.59-1.56-35.18c-.53-8.21-1.42-16.41-2.48-24.57-.87-6.82-5.08-11.66-11.13-15.17-5.18-3-10.19-1.49-11.71,4a47.16,47.16,0,0,0-1.46,11.6c-.58,33-.86,66-1.6,98.93-.28,12.76-1.41,25.5-2.35,38.24-.23,3.15-.67,6.51-4,8.47-3.74-3.09-3.86-3.05-5.42-7.64q-11.82-35-23.52-70c-.92-2.74-1.59-5.56-2.26-8.37-4.33-18.07-8.58-36.15-12.93-54.2-3.15-13.05-14.44-21.81-28.34-22.15-5-.13-7.25,1.35-8.5,5.89a18.92,18.92,0,0,0-.68,5.49c.16,4.73.71,9.45.81,14.18.5,23.47,1,46.95,1.29,70.43.17,14.84-.12,29.68-.22,44.52-.19,29.68-.58,59.37-.48,89.05a169.15,169.15,0,0,0,2.38,25.77c1,6.17,4.88,10.92,11.25,13.42s12.92,0,15.46-6.08a19.24,19.24,0,0,0,1.45-6c.63-9.44,1.35-18.89,1.51-28.35.11-6.77-.71-13.55-1-20.33-.48-13.39-1-26.78-1.24-40.17s-.32-26.77-.24-40.15C1527.1,426.22,1528,423.11,1528.63,419.43Z"/><path class="cls-1" d="M2540.57,455.43h.13c0-1.45,0-2.89,0-4.33.73-35,2.43-70.06.66-105.11a61.72,61.72,0,0,0-4.42-21.11,17.71,17.71,0,0,0-10.76-10.1c-10.51-3.89-14-2.35-17.18,7.87a17.76,17.76,0,0,0-1,4.2c-.52,8.83-1.64,17.7-1.24,26.5,1,21.27-.5,42.45-1.6,63.65a22.72,22.72,0,0,1-.47,3.05c-1.17,5.78-2.72,7.05-9,7.94-7.28,1-14.55,2.1-21.8,3.34-8.75,1.5-12-.9-12.45-9.47-.1-2.05-.12-4.12-.12-6.18,0-13.41.2-26.81-.06-40.22-.29-15.41.09-30.81-3.24-46.14-2.13-9.79-7.65-15.27-17-18.22-6.67-2.09-10.76-.43-13.75,5.56a62.68,62.68,0,0,0-5.8,38,226.73,226.73,0,0,1,2.14,25.22c.52,17.3.61,34.62.86,51.93.49,33.81.61,67.62,1.68,101.41.32,10.18,3.11,20.32,5.16,30.4a16.23,16.23,0,0,0,7.47,10.52c4.78,3,10.22,1.51,12.22-3.56a23.44,23.44,0,0,0,1.18-6.64c.24-3.08,0-6.19.29-9.27q3.16-38.82,6.45-77.62a119.24,119.24,0,0,1,1.82-13.46c1.06-5.22,2.91-6.53,8.45-6.72,2.81-.1,5.66.3,8.42,0,5.57-.66,11.09-1.68,16.64-2.53,7-1.07,10.89,1.56,11.39,8.25.36,4.89,0,9.83.05,14.74,0,4.53-.14,9.08.28,13.57.9,9.64,2.82,19.24,3.06,28.88.42,17,3.66,33.57,6.66,50.21a15.48,15.48,0,0,0,7.4,11.1c7,4.32,14.13,2,16.22-5.71a45.24,45.24,0,0,0,1.23-11.62Q2540.66,509.57,2540.57,455.43Z"/><path class="cls-1" d="M2003.61,581.59c1.74,0,3.47-.05,5.21,0,12.76.42,23-4.39,31.68-13.13,10.78-10.85,17-23.75,19.92-38.22,1.35-6.67,2.41-13.4,3.57-20.1,2-11.41,3.39-22.78,1.93-34.43-2.2-17.69-10.09-24.91-28.53-26.94-11.86-1.3-23.4-.07-34.9,1.82a127.61,127.61,0,0,0-21.2,5.7c-6,2.08-6.54,6.9-2,11.14a14.91,14.91,0,0,0,11.26,3.95c8-.35,16-1,24-1.26,11.81-.33,17.46,4.72,17.45,15.86a93,93,0,0,1-7.35,36.2c-2.47,5.86-6.31,11.26-10.05,16.54-3.07,4.33-7.36,7.83-12.95,8.77-12.08,2-23.87,1.27-34.2-5.86-9.31-6.42-16.6-14.7-20.86-24.83a100.37,100.37,0,0,1-8.19-40.41c.17-13.3,3-26.24,7.24-38.81,4.4-12.93,9.64-25.59,14.17-38.48a195.2,195.2,0,0,1,17.82-37,63.8,63.8,0,0,1,22.78-22.47c4.44-2.57,8.83-5.23,13.12-8a86.47,86.47,0,0,0,8.76-6.39c3.31-2.8,3.63-5.4.85-8.58a13.44,13.44,0,0,0-5.71-3.82c-8.14-2.63-16.47-3.55-24.87-.93-28.25,8.82-49.22,26-61.73,51.46a274.76,274.76,0,0,0-23.34,69.92c-6.28,32.88-2.67,64.6,11.9,95.42C1933.33,558.15,1975,583.21,2003.61,581.59Z"/><path class="cls-1" d="M3512.88,570.72c12.72.16,24.81-2.56,37-6,11.56-3.3,19.66-10.14,24.31-19.93,6.6-13.84,14.62-27,19.8-41.57,5.58-15.64,3.78-30-4.73-43.9-5.87-9.59-13.95-17.4-23.34-23.81a271.21,271.21,0,0,0-46-25.31c-8.84-3.79-17.23-8.6-25.57-13.35-7.88-4.49-12.95-11.39-16.62-19.31-2-4.23-2.32-8.41-.11-12.52a48.41,48.41,0,0,1,5.47-8.35,40.17,40.17,0,0,1,15.39-11,103.2,103.2,0,0,1,34.45-8.12c4.46-.28,9.22-1,13.16-2.82,8.45-3.92,8.95-12.16,1.13-17.09a41.85,41.85,0,0,0-13.52-5.73c-8.86-1.83-17.93-3.44-27-3.7-12.27-.35-24.15,2.26-34.41,9.22-12.72,8.62-22,19.82-26.5,34.19-5.22,16.74-3.28,32.31,9.61,45.56,6.65,6.84,14.13,12.74,23.45,16.24A117.34,117.34,0,0,1,3491.1,419q20.55,10.61,41,21.41c6,3.17,10.51,7.8,14.36,13.17,8,11.1,9,23.41,7.13,36.17a49.43,49.43,0,0,1-12,25.66,25.79,25.79,0,0,1-19,9.25c-6.91.35-13.8,1.21-20.67,2.07-9.13,1.15-18.07,1.19-26.93-1.79-5.71-1.91-11.63-3.25-17.5-4.68a39.72,39.72,0,0,0-8.3-1.29c-7-.17-12,3.69-13.5,10.18-1.7,7.2.44,13.09,7,17.23,5,3.2,10.16,6.31,15.39,9.23C3475,565.06,3493.12,570.53,3512.88,570.72Z"/><path class="cls-1" d="M3290.78,484.37h-.35c0,9.68,0,19.37,0,29A65.12,65.12,0,0,0,3305,554.85a48,48,0,0,0,21.58,15.34c19.58,7.11,38.79,4.88,57.42-3,8.09-3.44,10.83-9.81,8.53-17.94-.94-3.33-2.77-6.45-4.39-9.58s-4.62-4.38-8.13-3.77c-4.25.73-8.45,1.74-12.62,2.81-4.8,1.22-9.47,3-14.34,3.9-9.22,1.69-16.21-2.46-19.07-10.9a33.63,33.63,0,0,1-2-7.78c-1.56-18.66-3.32-37.32-4.26-56-.58-11.5,2.35-13.75,14.73-12.67,9.21.81,18.14-.61,27.13-1.87a17.57,17.57,0,0,0,12.31-7.34c1.46-2,2.45-4.39,4-6.35,4.25-5.34,1.72-10.24-4.9-12.32a36.48,36.48,0,0,0-5-1.29c-11.37-1.82-22.78-2.71-34.27-1a31.6,31.6,0,0,1-5.82.41c-4.2-.15-5.44-1-5.72-5.11-.41-6.16-.31-12.34-.4-18.52-.16-11.32,0-22.65-.53-33.95A113.08,113.08,0,0,1,3331.7,339c.89-4.27,3.44-7,8.12-7.72,2.14-.32,4.26-.78,6.41-1,12.92-1.26,25.85-2.44,38.77-3.72a23,23,0,0,0,5.64-1.24c2.75-1,4.88-2.82,5.26-5.78s-1.48-5.26-4.14-6.42c-5.48-2.38-10.93-5.36-16.73-6.4-19.14-3.46-38.39-1.54-57.55.51-9.58,1-14.35,7-15.55,15.68-1.49,10.82-3.22,21.63-4.13,32.5-2,23.81-3.86,47.63-5.18,71.47C3291.56,446.06,3291.36,465.22,3290.78,484.37Z"/><path class="cls-1" d="M2590,487.08h-.11c0,1.65,0,3.3,0,4.95.46,11.93-.09,24,1.68,35.75,2.25,14.94,9.86,28.11,23.08,36.69,22.51,14.61,46.38,12.08,69.92,1.94,6.85-2.95,9.3-9.24,7.25-16.13-1.1-3.7-3.1-7.19-4.89-10.69-1.62-3.17-4.62-4.43-8.12-3.82-4.45.77-8.85,1.85-13.21,3s-8.6,2.92-13,3.79c-9.63,1.9-17.51-2.73-19.51-11.79a220.13,220.13,0,0,1-4.51-26.78c-1.18-12.5-1.74-25.07-2.06-37.63-.24-9.17,2.45-11.59,11.9-11.11a129.26,129.26,0,0,0,26.52-1.44c7.7-1.19,13.69-4.46,18.17-10.69,6.83-9.5,5.4-13.81-6.45-16.57a102.9,102.9,0,0,0-34.87-1.73,56.53,56.53,0,0,1-7.1.61c-4.22-.08-5.54-1.09-5.69-5.12-.31-8.42-.3-16.86-.33-25.29,0-7.42.83-14.92,0-22.23-1.21-10-.36-19.75,1.14-29.54,1.47-9.64,4.2-12,14.18-12.84,11.86-1,23.74-1.67,35.59-2.76a32.75,32.75,0,0,0,10.61-2.52c6.32-2.92,6.63-8.08.94-12a37.66,37.66,0,0,0-15.91-6.61c-17.95-2.77-35.88-1.2-53.76.19-14.75,1.15-18.69,5.13-20.87,19q-.09.62-.15,1.23c-1.77,16.8-3.76,33.59-5.27,50.41-1.83,20.51-3.87,41-3.3,61.66.07,2.87-.4,5.75-.61,8.63-.41,5.54-1,11.08-1.15,16.62C2589.83,471.82,2590,479.46,2590,487.08Z"/><path class="cls-1" d="M2315.93,479.43q-1.6-46-3.21-92c-.08-2.47-.37-4.93-.51-7.4-.59-10.07-1.34-20.15-1.65-30.23-.18-5.85,1.74-7.14,7.7-7.47,19.23-1,38.46-2.13,57.66-3.56a30.66,30.66,0,0,0,11-3.4c4.43-2.2,5.66-6,4.26-10.56-1.88-6.2-6.47-9.55-13-10.67-18.05-3.09-36.25-2.82-54.45-2.14-14.27.53-28.51,1.65-42.77,2.24-14.94.6-29.91.7-44.59,3.77a139.29,139.29,0,0,0-18.7,4.92c-5.54,2-6.38,6.28-2.88,10.95,4,5.34,9.36,8.66,16.36,8.77,11.89.18,23.79.08,35.69.09,2.17,0,4.34-.1,6.5-.11a6.1,6.1,0,0,1,6.47,5,24.86,24.86,0,0,1,.66,5.51c.44,14.62.82,29.25,1.23,43.87.08,2.88.13,5.77.3,8.65.46,8,1.28,16,1.42,24q.56,31.83.59,63.66c0,9.88.15,19.84-1.14,29.6-1.51,11.41,0,22.61.52,33.89a27.41,27.41,0,0,0,2.62,9.5,18.88,18.88,0,0,0,10.16,10c7.64,3.21,12.94.38,15.73-6.94,1.21-3.17,1.25-6.89,1.16-10.34a194.94,194.94,0,0,1,1.13-30.82A242.94,242.94,0,0,0,2315.93,479.43Z"/><path class="cls-1" d="M1661.29,500h0c0,16.49-.18,33,0,49.48.22,16.7,3.47,20.61,19.8,25.25.62.17,1.25.32,1.88.45,7.17,1.52,10.51-.54,12.08-7.44a105.19,105.19,0,0,0,2.69-25.14c-.24-15-.12-30.07.06-45.1.18-15.66.89-31.31.82-47,0-9-.13-18.27-2-27.08-3.66-17.47-4.28-35.17-5.74-52.79-1.17-14.15-.94-28.39-1.34-42.59-.32-11.41-6-18-17.68-20.43-5.93-1.25-9.78,1.21-10.55,6.93a51.14,51.14,0,0,0-.23,6.79c0,25.14,0,50.28.2,75.41.06,10.92.66,21.84.69,32.75,0,8.44-.62,16.88-.69,25.32C1661.21,469.94,1661.29,485,1661.29,500Z"/><path class="cls-1" d="M1775.62,421.21c-.39,2.3-1.11,4.59-1.12,6.89-.07,21.64-.24,43.29.09,64.92.14,9.66,1.86,19.3,2,29,.11,11.72-.61,23.45-1.23,35.16-.4,7.63-4.48,12.89-10.36,14.17s-12.53-2.51-16.12-9.15c-3.14-5.82-4.09-12.18-4.27-18.56-.3-10.71-.18-21.43-.2-32.15,0-20.82-.22-41.65,0-62.47.13-15.65,1.19-31.3,1-46.94-.31-25.95-1.3-51.89-2-77.84-.11-4.33-.17-8.66,0-13,.22-7.84,4.2-10.76,12.31-9.09a52.25,52.25,0,0,1,6.85,1.9c9.66,3.37,15.8,9.65,18.14,19.36,3.29,13.63,6.9,27.2,10.29,40.81,2.3,9.2,3.95,18.59,6.8,27.63,6.73,21.28,14,42.43,21.12,63.59,1.07,3.17,1.88,6.78,6.64,8.64.88-2.64,2.1-4.86,2.28-7.14,1.17-14.37,2.48-28.75,3-43.14.69-18.95.65-37.93,1-56.89q.38-19.14,1-38.29a67.68,67.68,0,0,1,1.07-10.44c1.22-6.29,5.22-8.22,11.34-5.66A17.74,17.74,0,0,1,1856,315.65a140.06,140.06,0,0,1,3,20.75c.68,10.9.57,21.84,1,32.75.26,6.78,1.32,13.56,1.26,20.33-.07,7.19-1.39,14.37-1.56,21.57-.44,18.33-.56,36.68-.79,55,0,2.06.21,4.12.11,6.18-1.08,22.48.2,44.9,1.39,67.35.43,8.15-.91,16.43-2,24.59a11.94,11.94,0,0,1-9.11,10.3c-5.16,1.46-9.57-.46-12.89-4a88.3,88.3,0,0,1-9.28-11.86c-10.69-16.21-17.09-34.13-22.75-52.36-7.06-22.7-14.36-45.34-21.51-68-1.18-3.74-2.06-7.57-3.22-11.32-.63-2-1.56-4-2.35-5.94Z"/><path class="cls-1" d="M1528.63,419.43c-.6,3.68-1.53,6.79-1.55,9.91q-.12,20.07.24,40.15c.26,13.39.76,26.78,1.24,40.17.25,6.78,1.07,13.56,1,20.33-.16,9.46-.88,18.91-1.51,28.35a19.24,19.24,0,0,1-1.45,6c-2.54,6.12-9.07,8.59-15.46,6.08s-10.27-7.25-11.25-13.42a169.15,169.15,0,0,1-2.38-25.77c-.1-29.68.29-59.37.48-89.05.1-14.84.39-29.68.22-44.52-.26-23.48-.79-47-1.29-70.43-.1-4.73-.65-9.45-.81-14.18a18.92,18.92,0,0,1,.68-5.49c1.25-4.54,3.51-6,8.5-5.89,13.9.34,25.19,9.1,28.34,22.15,4.35,18.05,8.6,36.13,12.93,54.2.67,2.81,1.34,5.63,2.26,8.37q11.7,35,23.52,70c1.56,4.59,1.68,4.55,5.42,7.64,3.31-2,3.75-5.32,4-8.47.94-12.74,2.07-25.48,2.35-38.24.74-33,1-65.95,1.6-98.93a47.16,47.16,0,0,1,1.46-11.6c1.52-5.53,6.53-7,11.71-4,6,3.51,10.26,8.35,11.13,15.17,1.06,8.16,2,16.36,2.48,24.57q1.13,17.58,1.56,35.18c.17,7.18-.27,14.39-.5,21.58-.09,2.88-.37,5.76-.54,8.64-1.9,33.17-1,66.35-.54,99.53.14,10.29.95,20.57,1.55,30.85.56,9.79-1.27,19.33-3.6,28.74-1.62,6.58-9.92,9.9-16,6.47a33.24,33.24,0,0,1-9.06-7.7c-8-9.65-13.22-20.76-17.9-32.1-7.92-19.21-13.76-39-19.4-58.92-2.36-8.33-5.46-16.48-8-24.77-2.4-7.69-4.47-15.47-6.84-23.16C1532.38,424.42,1532.59,421.43,1528.63,419.43Z"/><path class="cls-1" d="M2540.57,455.43q0,54.13-.05,108.27a45.24,45.24,0,0,1-1.23,11.62c-2.09,7.68-9.19,10-16.22,5.71a15.48,15.48,0,0,1-7.4-11.1c-3-16.64-6.24-33.21-6.66-50.21-.24-9.64-2.16-19.24-3.06-28.88-.42-4.49-.25-9-.28-13.57,0-4.91.31-9.85-.05-14.74-.5-6.69-4.39-9.32-11.39-8.25-5.55.85-11.07,1.87-16.64,2.53-2.76.32-5.61-.08-8.42,0-5.54.19-7.39,1.5-8.45,6.72A119.24,119.24,0,0,0,2458.9,477q-3.32,38.81-6.45,77.62c-.25,3.08,0,6.19-.29,9.27a23.44,23.44,0,0,1-1.18,6.64c-2,5.07-7.44,6.59-12.22,3.56a16.23,16.23,0,0,1-7.47-10.52c-2.05-10.08-4.84-20.22-5.16-30.4-1.07-33.79-1.19-67.6-1.68-101.41-.25-17.31-.34-34.63-.86-51.93a226.73,226.73,0,0,0-2.14-25.22,62.68,62.68,0,0,1,5.8-38c3-6,7.08-7.65,13.75-5.56,9.38,2.95,14.9,8.43,17,18.22,3.33,15.33,2.95,30.73,3.24,46.14.26,13.41.05,26.81.06,40.22,0,2.06,0,4.13.12,6.18.43,8.57,3.7,11,12.45,9.47,7.25-1.24,14.52-2.31,21.8-3.34,6.25-.89,7.8-2.16,9-7.94a22.72,22.72,0,0,0,.47-3.05c1.1-21.2,2.56-42.38,1.6-63.65-.4-8.8.72-17.67,1.24-26.5a17.76,17.76,0,0,1,1-4.2c3.22-10.22,6.67-11.76,17.18-7.87a17.71,17.71,0,0,1,10.76,10.1,61.72,61.72,0,0,1,4.42,21.11c1.77,35.05.07,70.07-.66,105.11,0,1.44,0,2.88,0,4.33Z"/><path class="cls-1" d="M3110.83,543.9c-.3-19,2.62-21.2,1.11-69.17-.44-13.78-1.58-27.55-2.39-41.32a55.49,55.49,0,0,1-.14-6.18c1.09-20.76,2.28-41.52,3.34-62.29.32-6.17.1-12.37.5-18.53.51-8,1.35-16,2.15-24a13.68,13.68,0,0,1,1.28-4.75c2.94-5.66,9.45-7.87,11.05-8.4,9.73-3.19,19.23,1,24.84,3.54,5,2.23,8.79,5.05,16.12,10.61,13,9.83,22.87,19,22.85,19.07s-4.46-3.84-4.46-3.84l7.35,6.32c19.86,17.1,33.21,39,33.21,39,9.8,15.82,15.61,33,19.52,50.83,4.21,19.16,4.62,38.22-1.11,57.41-4.27,14.28-8.07,28.62-14.7,42.13-4.37,8.88-9.49,17.13-18.78,22.29-1.83,1-3.27,2.68-4.89,4a34.42,34.42,0,0,1-14.16,7.21c-4.79,1.2-9.39,3.12-14.17,4.37s-9.61,2.21-14.48,3c-5.12.81-10.31,1.21-15.47,1.82-7.13.85-14.24,1.19-21.3-.51-4.8-1.15-8.51-3.23-11-6.27-1.43-1.72-2.38-3.71-3.79-10.24C3113.05,559,3110.91,549,3110.83,543.9Zm32.73-23.6c-.07,11.59-.31,19.3-.79,22.9a17.52,17.52,0,0,0,.23,4.32c.79,4.73,3.52,6.71,8.22,5.11,6.49-2.23,13.65-4,18.91-7.93,12.85-9.59,24.14-20.72,28.91-36.37,2.84-9.29,6-18.49,9-27.73a134.57,134.57,0,0,0,6.43-51.25c-.8-12.09-3.66-23.68-10.41-34.08a225.78,225.78,0,0,0-29-35.64,39,39,0,0,0-17.48-10.32c-4.6-1.27-7.06.14-8,4.53a26.62,26.62,0,0,0-.31,3.69c-1.08,13.56-2.09,27.12-3.25,40.66-1,11.28-2.39,22.54-3.1,33.83-1.23,19.45-1.45,34.24-1.47,38.28C3141.4,483.59,3141.82,500.54,3143.56,520.3Z"/><path class="cls-1" d="M2003.61,581.59c-28.58,1.62-70.28-23.44-84.22-52.91-14.57-30.82-18.18-62.54-11.9-95.42a274.76,274.76,0,0,1,23.34-69.92c12.51-25.43,33.48-42.64,61.73-51.46,8.4-2.62,16.73-1.7,24.87.93a13.44,13.44,0,0,1,5.71,3.82c2.78,3.18,2.46,5.78-.85,8.58a86.47,86.47,0,0,1-8.76,6.39c-4.29,2.79-8.68,5.45-13.12,8a63.8,63.8,0,0,0-22.78,22.47,195.2,195.2,0,0,0-17.82,37c-4.53,12.89-9.77,25.55-14.17,38.48-4.27,12.57-7.07,25.51-7.24,38.81a100.37,100.37,0,0,0,8.19,40.41c4.26,10.13,11.55,18.41,20.86,24.83,10.33,7.13,22.12,7.87,34.2,5.86,5.59-.94,9.88-4.44,12.95-8.77,3.74-5.28,7.58-10.68,10.05-16.54A93,93,0,0,0,2032,486c0-11.14-5.64-16.19-17.45-15.86-8,.22-16,.91-24,1.26a14.91,14.91,0,0,1-11.26-3.95c-4.54-4.24-4-9.06,2-11.14a127.61,127.61,0,0,1,21.2-5.7c11.5-1.89,23-3.12,34.9-1.82,18.44,2,26.33,9.25,28.53,26.94,1.46,11.65,0,23-1.93,34.43-1.16,6.7-2.22,13.43-3.57,20.1-2.93,14.47-9.14,27.37-19.92,38.22-8.68,8.74-18.92,13.55-31.68,13.13C2007.08,581.54,2005.35,581.59,2003.61,581.59Z"/><path class="cls-1" d="M3512.88,570.72c-19.76-.19-37.93-5.66-54.86-15.12-5.23-2.92-10.35-6-15.39-9.23-6.52-4.14-8.66-10-7-17.23,1.54-6.49,6.5-10.35,13.5-10.18a39.72,39.72,0,0,1,8.3,1.29c5.87,1.43,11.79,2.77,17.5,4.68,8.86,3,17.8,2.94,26.93,1.79,6.87-.86,13.76-1.72,20.67-2.07a25.79,25.79,0,0,0,19-9.25,49.43,49.43,0,0,0,12-25.66c1.88-12.76.83-25.07-7.13-36.17-3.85-5.37-8.35-10-14.36-13.17q-20.46-10.75-41-21.41a117.34,117.34,0,0,0-12.29-5.61c-9.32-3.5-16.8-9.4-23.45-16.24-12.89-13.25-14.83-28.82-9.61-45.56,4.49-14.37,13.78-25.57,26.5-34.19,10.26-7,22.14-9.57,34.41-9.22,9,.26,18.1,1.87,27,3.7a41.85,41.85,0,0,1,13.52,5.73c7.82,4.93,7.32,13.17-1.13,17.09-3.94,1.83-8.7,2.54-13.16,2.82a103.2,103.2,0,0,0-34.45,8.12,40.17,40.17,0,0,0-15.39,11,48.41,48.41,0,0,0-5.47,8.35c-2.21,4.11-1.85,8.29.11,12.52,3.67,7.92,8.74,14.82,16.62,19.31,8.34,4.75,16.73,9.56,25.57,13.35a271.21,271.21,0,0,1,46,25.31c9.39,6.41,17.47,14.22,23.34,23.81,8.51,13.92,10.31,28.26,4.73,43.9-5.18,14.54-13.2,27.73-19.8,41.57-4.65,9.79-12.75,16.63-24.31,19.93C3537.69,568.16,3525.6,570.88,3512.88,570.72Z"/><path class="cls-1" d="M3290.78,484.37c.58-19.15.78-38.31,1.84-57.44,1.32-23.84,3.18-47.66,5.18-71.47.91-10.87,2.64-21.68,4.13-32.5,1.2-8.73,6-14.65,15.55-15.68,19.16-2,38.41-4,57.55-.51,5.8,1,11.25,4,16.73,6.4,2.66,1.16,4.53,3.33,4.14,6.42s-2.51,4.77-5.26,5.78a23,23,0,0,1-5.64,1.24c-12.92,1.28-25.85,2.46-38.77,3.72-2.15.21-4.27.67-6.41,1-4.68.7-7.23,3.45-8.12,7.72a113.08,113.08,0,0,0-2.46,28.85c.56,11.3.37,22.63.53,33.95.09,6.18,0,12.36.4,18.52.28,4.09,1.52,5,5.72,5.11a31.6,31.6,0,0,0,5.82-.41c11.49-1.73,22.9-.84,34.27,1a36.48,36.48,0,0,1,5,1.29c6.62,2.08,9.15,7,4.9,12.32-1.55,2-2.54,4.31-4,6.35a17.57,17.57,0,0,1-12.31,7.34c-9,1.26-17.92,2.68-27.13,1.87-12.38-1.08-15.31,1.17-14.73,12.67.94,18.69,2.7,37.35,4.26,56a33.63,33.63,0,0,0,2,7.78c2.86,8.44,9.85,12.59,19.07,10.9,4.87-.89,9.54-2.68,14.34-3.9,4.17-1.07,8.37-2.08,12.62-2.81,3.51-.61,6.49.59,8.13,3.77s3.45,6.25,4.39,9.58c2.3,8.13-.44,14.5-8.53,17.94-18.63,7.92-37.84,10.15-57.42,3A48,48,0,0,1,3305,554.85a65.12,65.12,0,0,1-14.57-41.42c-.05-9.68,0-19.37,0-29Z"/><path class="cls-1" d="M2590,487.08c0-7.62-.15-15.26.05-22.88.14-5.54.74-11.08,1.15-16.62.21-2.88.68-5.76.61-8.63-.57-20.64,1.47-41.15,3.3-61.66,1.51-16.82,3.5-33.61,5.27-50.41q.06-.61.15-1.23c2.18-13.83,6.12-17.81,20.87-19,17.88-1.39,35.81-3,53.76-.19a37.66,37.66,0,0,1,15.91,6.61c5.69,3.95,5.38,9.11-.94,12a32.75,32.75,0,0,1-10.61,2.52c-11.85,1.09-23.73,1.79-35.59,2.76-10,.82-12.71,3.2-14.18,12.84-1.5,9.79-2.35,19.56-1.14,29.54.88,7.31,0,14.81,0,22.23,0,8.43,0,16.87.33,25.29.15,4,1.47,5,5.69,5.12a56.53,56.53,0,0,0,7.1-.61,102.9,102.9,0,0,1,34.87,1.73c11.85,2.76,13.28,7.07,6.45,16.57-4.48,6.23-10.47,9.5-18.17,10.69a129.26,129.26,0,0,1-26.52,1.44c-9.45-.48-12.14,1.94-11.9,11.11.32,12.56.88,25.13,2.06,37.63a220.13,220.13,0,0,0,4.51,26.78c2,9.06,9.88,13.69,19.51,11.79,4.42-.87,8.65-2.64,13-3.79s8.76-2.24,13.21-3c3.5-.61,6.5.65,8.12,3.82,1.79,3.5,3.79,7,4.89,10.69,2.05,6.89-.4,13.18-7.25,16.13-23.54,10.14-47.41,12.67-69.92-1.94-13.22-8.58-20.83-21.75-23.08-36.69-1.77-11.75-1.22-23.82-1.68-35.75-.06-1.65,0-3.3,0-4.95Z"/><path class="cls-1" d="M2315.93,479.43a242.94,242.94,0,0,1-1.75,48.75,194.94,194.94,0,0,0-1.13,30.82c.09,3.45,0,7.17-1.16,10.34-2.79,7.32-8.09,10.15-15.73,6.94a18.88,18.88,0,0,1-10.16-10,27.41,27.41,0,0,1-2.62-9.5c-.48-11.28-2-22.48-.52-33.89,1.29-9.76,1.15-19.72,1.14-29.6q0-31.83-.59-63.66c-.14-8-1-16-1.42-24-.17-2.88-.22-5.77-.3-8.65-.41-14.62-.79-29.25-1.23-43.87a24.86,24.86,0,0,0-.66-5.51,6.1,6.1,0,0,0-6.47-5c-2.16,0-4.33.11-6.5.11-11.9,0-23.8.09-35.69-.09-7-.11-12.36-3.43-16.36-8.77-3.5-4.67-2.66-9,2.88-10.95a139.29,139.29,0,0,1,18.7-4.92c14.68-3.07,29.65-3.17,44.59-3.77,14.26-.59,28.5-1.71,42.77-2.24,18.2-.68,36.4-1,54.45,2.14,6.51,1.12,11.1,4.47,13,10.67,1.4,4.61.17,8.36-4.26,10.56a30.66,30.66,0,0,1-11,3.4c-19.2,1.43-38.43,2.52-57.66,3.56-6,.33-7.88,1.62-7.7,7.47.31,10.08,1.06,20.16,1.65,30.23.14,2.47.43,4.93.51,7.4Q2314.36,433.43,2315.93,479.43Z"/><path class="cls-1" d="M1661.29,500c0-15.05-.08-30.1,0-45.15.07-8.44.71-16.88.69-25.32,0-10.91-.63-21.83-.69-32.75-.16-25.13-.15-50.27-.2-75.41a51.14,51.14,0,0,1,.23-6.79c.77-5.72,4.62-8.18,10.55-6.93,11.66,2.44,17.36,9,17.68,20.43.4,14.2.17,28.44,1.34,42.59,1.46,17.62,2.08,35.32,5.74,52.79,1.85,8.81,1.95,18,2,27.08.07,15.65-.64,31.3-.82,47-.18,15-.3,30.07-.06,45.1a105.19,105.19,0,0,1-2.69,25.14c-1.57,6.9-4.91,9-12.08,7.44-.63-.13-1.26-.28-1.88-.45-16.33-4.64-19.58-8.55-19.8-25.25-.23-16.49,0-33,0-49.48Z"/><path class="cls-1" d="M1457.78,569.06a31.82,31.82,0,0,0-4.62-10.77c-5-7.49-10.55-14.59-15.71-22-4.79-6.85-9.58-13.72-14-20.8-7.83-12.56-15-25.48-23.14-37.88-4.66-7.14-10.5-13.58-15.86-20.29-3.27-4.09-3.3-6.51.37-10.34a27.79,27.79,0,0,1,5.72-5c9.25-5.36,15.35-13.26,19.93-22.28,10.25-20.14,18.54-40.73,17.72-63.78-.49-13.75-8.51-23.31-17.77-32.46a8.27,8.27,0,0,0-2.15-1.39c-13.26-6.51-27-10-41.94-6.08a22.39,22.39,0,0,1-15.8-1.14,26.07,26.07,0,0,0-6.12-2c-5.72-1.1-8.6.58-10.17,5.93a35.1,35.1,0,0,0-.9,6.08c-.38,3.68-.7,7.37-1,11.06-.65,7.18-1.58,14.35-1.87,21.54-.62,15.22-.9,30.45-1.32,45.68-.22,8,.13,16.12-.78,24.08-2.06,17.86,1.57,35.8-1.16,53.62a6.46,6.46,0,0,0,.08,1.23c.31,7.82.71,15.64.91,23.47.45,17.92.66,35.85,1.31,53.77a23.57,23.57,0,0,0,2.89,10.58c4,7,11.66,8,18.07,2.85,5.88-4.68,8.46-10.9,8.58-18,.2-11.53.12-23.07.15-34.61,0-7-.27-14,.14-21,.24-4.16.35-8.63,4.59-13.33,2.72,2.92,5.26,5.12,7.13,7.75,5.71,8,11.09,16.24,16.73,24.3,9.49,13.54,18.72,27.25,28.79,40.39,4.4,5.74,10.21,10.67,16.08,15.14a40.53,40.53,0,0,0,13.31,6.11C1453.79,581.75,1459.38,576.77,1457.78,569.06ZM1368.29,417.4a16.17,16.17,0,0,1-2.66,2.7c-3.31,2.71-5.76,2.13-6.28-1.91a152.83,152.83,0,0,1-.9-16c-.14-5.55,0-11.12,0-18.76.55-8.64,1.14-19.32,1.95-30,.51-6.85,4.77-10.77,11.57-12.46,2.31-.57,4.57-1.33,6.89-1.78,10.43-2,18.4,2.94,20.85,12.83,1.92,7.74.36,15.21-2.26,22.46a51,51,0,0,1-6.15,12.22C1383.85,397.09,1376,407.2,1368.29,417.4Z"/><path class="cls-1" d="M1151.13,324.61c-2.15-5-6.2-7.9-11.86-8.4-10.35-.92-20.72-2.51-31.06-2.34-21.42.34-42.81,2-64.23,2.47-19.78.41-39.38,1.64-58.7,5.87a46.73,46.73,0,0,0-6.29,1.45c-5.53,2.08-7.16,6.56-4.25,11.52A16.17,16.17,0,0,0,978,339a21.69,21.69,0,0,0,14.7,5.66c13,0,26-.1,39,0,7.08,0,8.64,1.58,9.3,8.32.1,1,.13,2.06.18,3.09.82,20.38,1.89,40.75,2.38,61.14.43,17.93.27,35.87.24,53.81s.25,35.89-.53,53.8a229.72,229.72,0,0,0,1.11,34.5c.87,8.13,4.65,13.91,11.57,18.3,5.93,3.75,13.76,1.94,16-4.4,1.42-4,1.73-8.43,2-12.69.39-7,.15-14,.47-21,.71-15.64,1.88-31.27,2.3-46.91.27-9.67-1.15-19.39-.67-29,1.13-22.7-4-45.22-1.89-67.93a15,15,0,0,0-.24-2.46c-.82-9.44-1.73-18.87-2.4-28.32a135,135,0,0,1-.25-14.22c.15-4.06,1.62-5.94,5-6.05,9.52-.31,19.06-.48,28.59-.27l29.75-1.88c9-.27,16-4.73,17.32-10.16A12.88,12.88,0,0,0,1151.13,324.61Z"/><path class="cls-1" d="M1305.77,366a106.1,106.1,0,0,1-.47-14.16c0-4.32.65-8.65.52-13-.52-16.81-5.76-21.06-20.54-28.46-5.58-2.79-11-.05-12.45,5.81a37.41,37.41,0,0,0-.75,8.6c-.09,10.1,0,20.2,0,30.31l0,12.18c-.56,7.16-1,12.91-1.29,16.86-.54,7.24-.59,7.77-.77,9.84-.48,5.54-1.15,11.07-1.43,16.62-.35,7,0,14.05-.63,21-2.26,24.41-5.09,48.78-7.13,73.2-1,12.52-6.21,23-14.55,32.35a35.88,35.88,0,0,1-6.81,5.67c-5.14,3.4-10.36,3.31-15.83.24-7.42-4.18-11.55-10.55-13.65-18.11-2.15-7.76-3.66-15.68-5.42-23.54-3.24-14.56-3.23-29.48-5.28-44.15-2.29-16.43-2.7-32.86-2.53-49.36.07-6.19.39-12.39.14-18.56-.88-21.91-2-21.9-2.6-41.84-.62-18.83.7-23.72-4-27.9-5.48-4.83-15.71-5.75-21.49-1.57-4,2.89-4.86,7.49-6.32,15.24-1,5.53-1,9.61-.88,17.15.23,14.25.35,21.38.36,21.63.56,11.93,1.7,23.84,2,35.77.42,14.83,0,29.69.49,44.52.26,8.84,1.36,17.65,2.21,26.47q.88,9.21,2.14,18.38c.55,4.08,1.49,8.1,2.1,12.18,3.53,23.84,12.34,44.64,33.68,59.77,15.49,11,31.89,15.86,51,13.66,12.49-1.44,22.67-6.44,28.56-17,5.45-9.73,10.47-19.91,13.77-30.43,2.8-8.95,3.28-18.65,4-28.07,1-12.93,1.34-25.92,2-38.88.6-11.53,1.44-23,1.83-34.57.38-11.12.16-22.26.53-33.39C1306.72,389,1307.28,377.49,1305.77,366Z"/><path class="cls-1" d="M3007.55,317.11c-3.16-3.73-8.37-4.18-13.26-4.55-9.07-.67-18.15-2.12-27.19-1.92-25.32.55-50.62,1.7-75.93,2.8a267,267,0,0,0-27.15,2.18,234.55,234.55,0,0,0-27.14,5.86c-4.73,1.28-6,4.33-4.29,8.73a17.1,17.1,0,0,0,4.72,6.42c4.18,3.67,9.56,4.5,15.07,4.86a284.8,284.8,0,0,0,37.64,0c6.78-.44,9.09,1.87,9.25,8.28.8,31.5,3.38,63,2.75,94.49-.22,10.91.52,21.84.42,32.76-.16,19-.81,37.92-.87,56.88a229.6,229.6,0,0,0,1.47,25.26c.67,6.18,4.25,10.88,9.59,14.78a11.8,11.8,0,0,0,18.87-8c.36-4.3.15-8.64.29-13,.21-6.57.45-13.15.77-19.72.74-15.22,2.32-30.45,2.11-45.66-.36-26.35-1.75-52.7-2.83-79.05-.73-17.7-1.68-35.4-2.5-53.1a65.23,65.23,0,0,1-.1-8c.36-4.63,2.13-6.07,7.05-6.25,10.17-.37,20.33-1.46,30.49-1.16,0,0,26.65.78,38.39-7.74,3.28-2.38,4.25-4.68,4.61-6A10.42,10.42,0,0,0,3007.55,317.11Z"/><path class="cls-1" d="M3060.82,509.58c-.07-3.49-.6-7-.56-10.48.2-19.77,1.51-39.59.48-59.3-1.08-20.71-4.39-41.32-6.7-62-.37-3.28-.79-6.56-.88-9.84-.39-13.59-.65-27.18-1-40.77-.27-11.1-7.69-18.63-19.2-19.51-2.54-.19-4.36,0-5.79.85a8.66,8.66,0,0,0-3.37,4.27,15.42,15.42,0,0,0-1.53,6.85l.69,17.92a50.48,50.48,0,0,1,.28,7.39c.13,6.8.23,13.6.36,20.4.17,9.46.48,18.93.51,28.39,0,5.76-.53,11.53-.57,17.29-.08,15,0,30.07,0,45.1,0,24.33-.08,48.66,0,73,0,9.26.36,18.53.89,27.78a15.15,15.15,0,0,0,8.42,13.19,66.32,66.32,0,0,0,14.45,5.23c5.27,1.27,8.91-1,10-6.24,1.65-8.27,3.42-16.62,3.82-25C3061.67,532.64,3061,521.1,3060.82,509.58Z"/><path class="cls-1" d="M780.35,421.05a3.5,3.5,0,0,0-.46-.75A3.5,3.5,0,0,1,780.35,421.05Z"/><path class="cls-1" d="M779.29,419.72a6,6,0,0,0-2.91-.93A6,6,0,0,1,779.29,419.72Z"/><path class="cls-1" d="M782.48,450.85l-.24-.27Z"/><path class="cls-1" d="M761.24,418.62l-20,.09Z"/><path class="cls-1" d="M786.61,452.36l-.71-.07Z"/><path class="cls-1" d="M784.18,451.9l-.44-.18Z"/><path class="cls-1" d="M782.51,450.88h0Z"/><path class="cls-1" d="M781.67,263.27q2.64-6.74,5.25-13.48Q784.31,256.54,781.67,263.27Z"/><path class="cls-1" d="M793.89,452.48h0Z"/><path class="cls-1" d="M778.11,272.24q1.8-4.47,3.56-9Q779.9,267.77,778.11,272.24Z"/><path class="cls-1" d="M796.32,229a1.91,1.91,0,0,1,1.08-.45A1.91,1.91,0,0,0,796.32,229Z"/><path class="cls-1" d="M729.68,418.73l-1.55-.05Z"/><path class="cls-1" d="M721.74,415.16c0-.14,0-.29,0-.45C721.74,414.87,721.74,415,721.74,415.16Z"/><path class="cls-1" d="M731.23,418.74l10,0-10,0Z"/><path class="cls-1" d="M728.13,418.68c-.52,0-1-.07-1.54-.12C727.1,418.61,727.61,418.65,728.13,418.68Z"/><path class="cls-1" d="M806.5,448.08a6.26,6.26,0,0,1-.27,1.15A6.26,6.26,0,0,0,806.5,448.08Z"/><path class="cls-1" d="M811.85,418.83l-.8.07Z"/><path class="cls-1" d="M811,418.91a7.49,7.49,0,0,0-1.55.33A7.49,7.49,0,0,1,811,418.91Z"/><path class="cls-1" d="M813.29,418.78l-1,0Z"/><path class="cls-1" d="M808.83,419.49a3.73,3.73,0,0,0-.44.29A3.73,3.73,0,0,1,808.83,419.49Z"/><path class="cls-1" d="M848.14,418.76h0Z"/><path class="cls-1" d="M839.35,418.77Z"/><path class="cls-1" d="M826.59,418.76q-6.37,0-12.76,0Q820.21,418.75,826.59,418.76Z"/><path class="cls-1" d="M797.43,228.59a1.6,1.6,0,0,1,.84.18A1.6,1.6,0,0,0,797.43,228.59Z"/><path class="cls-1" d="M798.68,452.45l-3.19,0Z"/><path class="cls-1" d="M808.1,420.05l-.25.29Z"/><path class="cls-1" d="M806.23,449.23a4.53,4.53,0,0,1-.4.89A4.53,4.53,0,0,0,806.23,449.23Z"/><path class="cls-1" d="M806.7,442.58c0,1.08,0,2.16,0,3.24C806.7,444.74,806.7,443.66,806.7,442.58Z"/><path class="cls-1" d="M807.85,420.34a3.21,3.21,0,0,0-.19.31A3.21,3.21,0,0,1,807.85,420.34Z"/><path class="cls-1" d="M807,422.71c0,.26-.07.54-.1.83C807,423.25,807,423,807,422.71Z"/><path class="cls-1" d="M807.19,421.92l0,.13Z"/><path class="cls-1" d="M792.52,235.52a33.55,33.55,0,0,1,2.79-5.31A33.55,33.55,0,0,0,792.52,235.52Z"/><path class="cls-1" d="M781.18,433.79c0,2,0,4-.07,6,0-2,.07-4,.07-6Z"/><path class="cls-1" d="M781.11,439.83c0,2-.06,4-.05,6l0,.84,0-.84C781.05,443.85,781.08,441.84,781.11,439.83Z"/><path class="cls-1" d="M772.36,418.58c1.12,0,2.24,0,3.35.14l.67.07-.67-.07C774.6,418.62,773.48,418.59,772.36,418.58Z"/><path class="cls-1" d="M798.68,452.45h0Z"/><path class="cls-1" d="M779.29,419.72a3,3,0,0,1,.6.58A3,3,0,0,0,779.29,419.72Z"/><path class="cls-1" d="M792.52,235.52c-.11.27-.22.53-.32.8q-2.67,6.72-5.28,13.47,2.63-6.73,5.28-13.47C792.3,236.05,792.41,235.79,792.52,235.52Z"/><path class="cls-1" d="M851.07,418.75h0Z"/><path class="cls-1" d="M839.35,418.75h0Z"/><path class="cls-1" d="M801.31,452.38l-.48,0,.48,0c2.06-.24,3.43-.79,4.26-1.88C804.74,451.59,803.37,452.14,801.31,452.38Z"/><path class="cls-1" d="M806.7,442.58c0-1.44,0-2.87,0-4.31C806.68,439.71,806.7,441.14,806.7,442.58Z"/><path class="cls-1" d="M825,292.55q-11.57-29.32-23.14-58.65c0-.1-.08-.2-.13-.3,0,.1.09.2.13.3Q813.42,263.22,825,292.55Z"/><path class="cls-1" d="M857.76,375.54q-4.83-12.17-9.64-24.35Q836.54,321.88,825,292.55q11.57,29.32,23.14,58.64Q852.92,363.37,857.76,375.54Z"/><path class="cls-1" d="M799.71,230c.19.23.37.49.54.74-.17-.25-.35-.51-.54-.74a4.25,4.25,0,0,0-1.44-1.24A4.25,4.25,0,0,1,799.71,230Z"/><path class="cls-1" d="M807.16,422.05c0,.21-.09.43-.13.66C807.07,422.48,807.11,422.26,807.16,422.05Z"/><path class="cls-1" d="M806.71,428.71c0,1.06,0,2.12,0,3.18C806.69,430.83,806.7,429.77,806.71,428.71Z"/><path class="cls-1" d="M807.66,420.65a4.1,4.1,0,0,0-.31.7A4.1,4.1,0,0,1,807.66,420.65Z"/><path class="cls-1" d="M869.73,405.26c-.78-1.79-1.56-3.58-2.28-5.4q-4.86-12.15-9.69-24.32,4.83,12.16,9.69,24.32C868.17,401.68,869,403.47,869.73,405.26Z"/><path class="cls-1" d="M807.35,421.35a4.74,4.74,0,0,0-.16.57A4.74,4.74,0,0,1,807.35,421.35Z"/><path class="cls-1" d="M800.25,230.75a13.54,13.54,0,0,1,.92,1.62A13.54,13.54,0,0,0,800.25,230.75Z"/><path class="cls-1" d="M806.69,433.49v0Z"/><path class="cls-1" d="M721.92,416.31a3.34,3.34,0,0,1-.16-.74A3.34,3.34,0,0,0,721.92,416.31Z"/><path class="cls-1" d="M800.83,452.42h0Z"/><path class="cls-1" d="M806.7,442.58Z"/><path class="cls-1" d="M806.5,448.08a10.4,10.4,0,0,0,.12-1.19c0-.36,0-.72,0-1.07,0,.35,0,.71,0,1.07A10.4,10.4,0,0,1,806.5,448.08Z"/><path class="cls-1" d="M871.81,417.47a3.13,3.13,0,0,0,.62-.58A3.13,3.13,0,0,1,871.81,417.47Z"/><path class="cls-1" d="M859,418.79c2.64,0,5.29,0,7.92-.16a14,14,0,0,0,3.69-.58,14,14,0,0,1-3.69.58C864.3,418.77,861.65,418.8,859,418.79Z"/><path class="cls-1" d="M808.1,420.05a2.44,2.44,0,0,1,.29-.27A2.44,2.44,0,0,0,808.1,420.05Z"/><path class="cls-1" d="M873,415.29a3.27,3.27,0,0,1-.19.87A3.27,3.27,0,0,0,873,415.29Z"/><path class="cls-1" d="M872.83,416.16a2.72,2.72,0,0,1-.4.73A2.72,2.72,0,0,0,872.83,416.16Z"/><path class="cls-1" d="M872,410.66c-.53-1.37-1.1-2.72-1.68-4.06.58,1.34,1.15,2.69,1.68,4.06a11.33,11.33,0,0,1,1,4.63A11.33,11.33,0,0,0,872,410.66Z"/><path class="cls-1" d="M797.4,228.59h0Z"/><path class="cls-1" d="M811.05,418.9h0Z"/><path class="cls-1" d="M848.14,418.76h0Z"/><path class="cls-1" d="M801.17,232.37c.19.4.37.82.54,1.23C801.54,233.19,801.36,232.77,801.17,232.37Z"/><path class="cls-1" d="M809.42,419.24l-.34.13Z"/><path class="cls-1" d="M786.61,452.36c.29,0,.59,0,.9.05,1.07,0,2.13,0,3.19.06-1.06,0-2.12,0-3.19-.06C787.2,452.4,786.9,452.39,786.61,452.36Z"/><path class="cls-1" d="M761.24,418.62l10,0h0Z"/><path class="cls-1" d="M781.12,427.54c0-.83,0-1.66-.1-2.49C781.07,425.88,781.1,426.71,781.12,427.54Z"/><path class="cls-1" d="M722.22,416.93a3,3,0,0,0,1.46,1.09A3,3,0,0,1,722.22,416.93Z"/><path class="cls-1" d="M723.68,418a7.37,7.37,0,0,0,1.37.35l.77.11-.77-.11A7.37,7.37,0,0,1,723.68,418Z"/><path class="cls-1" d="M781.12,447.12l0-.42Z"/><path class="cls-1" d="M781.18,432.54c0-.83,0-1.66,0-2.5C781.17,430.88,781.18,431.71,781.18,432.54Z"/><path class="cls-1" d="M721.76,415.57c0-.13,0-.27,0-.41C721.74,415.3,721.75,415.44,721.76,415.57Z"/><path class="cls-1" d="M781.26,448.22c-.06-.34-.11-.71-.14-1.1C781.15,447.51,781.2,447.88,781.26,448.22Z"/><path class="cls-1" d="M722.22,416.93a3,3,0,0,1-.3-.62A3,3,0,0,0,722.22,416.93Z"/><path class="cls-1" d="M731.23,418.74Z"/><path class="cls-1" d="M753.22,333.72q-1.77,4.39-3.52,8.79-5.12,12.78-10.14,25.58,5-12.79,10.14-25.58Q751.46,338.12,753.22,333.72Z"/><path class="cls-1" d="M726.16,402.24q-1.68,4.27-3.35,8.54a17.33,17.33,0,0,0-.76,2.2,17.33,17.33,0,0,1,.76-2.2Q724.47,406.52,726.16,402.24Z"/><path class="cls-1" d="M781.18,432.54v1.25h0Z"/><path class="cls-1" d="M781.85,450a4.27,4.27,0,0,1-.24-.53A4.27,4.27,0,0,0,781.85,450Z"/><path class="cls-1" d="M785.9,452.29a8.88,8.88,0,0,1-1.42-.29A8.88,8.88,0,0,0,785.9,452.29Z"/><path class="cls-1" d="M783.74,451.72a4,4,0,0,1-.61-.34A4,4,0,0,0,783.74,451.72Z"/><path class="cls-1" d="M763.89,307.37q3.57-8.78,7.13-17.56Q767.45,298.59,763.89,307.37Z"/><path class="cls-1" d="M792.3,452.48h0Z"/><path class="cls-1" d="M780.87,423.14l.06.66.09,1.25-.09-1.25Z"/><path class="cls-1" d="M782.5,450.87l0,0Z"/><path class="cls-1" d="M796.32,229a3.58,3.58,0,0,0-.49.47A3.58,3.58,0,0,1,796.32,229Z"/><path class="cls-1" d="M783.13,451.38a3.39,3.39,0,0,1-.62-.5A3.39,3.39,0,0,0,783.13,451.38Z"/><path class="cls-1" d="M782.24,450.58a6,6,0,0,1-.39-.59A6,6,0,0,0,782.24,450.58Z"/><path class="cls-1" d="M726.16,402.24q5-12.8,10-25.61Q731.18,389.43,726.16,402.24Z"/><path class="cls-1" d="M872,410.66c-.53-1.37-1.1-2.72-1.68-4.06-.19-.45-.38-.9-.58-1.34-.78-1.79-1.56-3.58-2.28-5.4q-4.86-12.15-9.69-24.32t-9.64-24.35Q836.54,321.88,825,292.55T801.84,233.9c0-.1-.08-.2-.13-.3-.17-.41-.35-.83-.54-1.23a13.54,13.54,0,0,0-.92-1.62c-.17-.25-.35-.51-.54-.74a4.25,4.25,0,0,0-1.44-1.24,1.6,1.6,0,0,0-.84-.18h0a1.91,1.91,0,0,0-1.08.45,3.58,3.58,0,0,0-.49.47,5.09,5.09,0,0,0-.52.7,33.55,33.55,0,0,0-2.79,5.31c-.11.27-.22.53-.32.8q-2.67,6.72-5.28,13.47t-5.25,13.48q-1.77,4.5-3.56,9Q774.59,281,771,289.81t-7.13,17.56q-5.35,13.17-10.67,26.35-1.77,4.39-3.52,8.79-5.12,12.78-10.14,25.58l-3.36,8.54q-5,12.8-10,25.61-1.68,4.27-3.35,8.54a17.33,17.33,0,0,0-.76,2.2,6.74,6.74,0,0,0-.17.75,7.57,7.57,0,0,0-.13,1c0,.16,0,.31,0,.45s0,.28,0,.41a3.34,3.34,0,0,0,.16.74,3,3,0,0,0,.3.62,3,3,0,0,0,1.46,1.09,7.37,7.37,0,0,0,1.37.35l.77.11.77.08c.51.05,1,.09,1.54.12l1.55.05h1.55l10,0,20-.09,10,0h1.12c1.12,0,2.24,0,3.35.14l.67.07a6,6,0,0,1,2.91.93,3,3,0,0,1,.6.58,3.5,3.5,0,0,1,.46.75,7.16,7.16,0,0,1,.52,2.09l.06.66.09,1.25c.05.83.08,1.66.1,2.49s0,1.67,0,2.5,0,1.67,0,2.5v1.25h0c0,2,0,4-.07,6s-.06,4-.05,6l0,.84,0,.42c0,.39.08.76.14,1.1a6.74,6.74,0,0,0,.35,1.24,4.27,4.27,0,0,0,.24.53,6,6,0,0,0,.39.59l.24.27,0,0h0a3.39,3.39,0,0,0,.62.5,4,4,0,0,0,.61.34l.44.18.3.1a8.88,8.88,0,0,0,1.42.29l.71.07c.29,0,.59,0,.9.05,1.07,0,2.13,0,3.19.06h4.79l3.19,0h2.15l.48,0c2.06-.24,3.43-.79,4.26-1.88.09-.12.18-.25.26-.38a4.53,4.53,0,0,0,.4-.89,6.26,6.26,0,0,0,.27-1.15,10.4,10.4,0,0,0,.12-1.19c0-.36,0-.72,0-1.07,0-1.08,0-2.16,0-3.24h0c0-1.44,0-2.87,0-4.31v-6.38c0-1.06,0-2.12,0-3.18s0-2.13.09-3.19c0-.74.07-1.39.13-2,0-.29.06-.57.1-.83s.08-.45.13-.66l0-.13a4.74,4.74,0,0,1,.16-.57,4.1,4.1,0,0,1,.31-.7,3.21,3.21,0,0,1,.19-.31l.25-.29a2.44,2.44,0,0,1,.29-.27,3.73,3.73,0,0,1,.44-.29l.25-.12.34-.13a7.49,7.49,0,0,1,1.55-.33h.08l.8-.07.45,0,1,0h.54q6.38,0,12.76,0h12.76v0h13.71c2,0,4,0,6,0,2.64,0,5.29,0,7.92-.16a14,14,0,0,0,3.69-.58,4.88,4.88,0,0,0,1.19-.58,3.13,3.13,0,0,0,.62-.58,2.72,2.72,0,0,0,.4-.73,3.27,3.27,0,0,0,.19-.87A11.33,11.33,0,0,0,872,410.66Zm-40.58-18c-1.94.18-3.9.21-5.85.21q-14.13,0-28.27,0c-9.65,0-19.3,0-28.95,0a43.83,43.83,0,0,1-6.18-.37c-2.1-.31-2.76-1.32-2.37-3.4a21,21,0,0,1,1.27-3.91q8.25-20.62,16.53-41.23Q786,323,794.32,302a17.52,17.52,0,0,1,1.33-2.8c1.08-1.73,2.36-1.8,3.47-.15a15.71,15.71,0,0,1,1.51,3.08c4.61,11.63,9.18,23.28,13.81,34.91q9.81,24.63,19.67,49.24c.17.43.33.86.47,1.29C835.76,391.06,835,392.29,831.41,392.64Z"/><path class="cls-1" d="M476.74,711.59c4.54-.4,7.85-.82,11.17-1a149.17,149.17,0,0,0,25.64-2.83q9.59-2.1,19.1-4.47a12.12,12.12,0,0,0,8.89-7.46,11.75,11.75,0,0,0-13-15.69c-3.14.62-6.27,1.42-9.35,2.31-13.73,4-27.81,4.94-42,4.8-16.47-.16-32.72-2.56-48.85-5.75a41.13,41.13,0,0,1-26.91-17.69,80.3,80.3,0,0,1-8.79-16.35c-3.58-9.19-3.45-18.15,1.81-26.78a27.53,27.53,0,0,0,2.74-5.55c1.36-4.06,1.06-8-2-11.3A12.17,12.17,0,0,0,383.64,600c-4.65.8-7.39,4-9.55,7.78a55.88,55.88,0,0,0-6.43,39.92c2.12,10.62,7.36,20,13.47,28.85C392,692.24,406.81,702,425.65,705.24c6.67,1.17,13.37,2.18,20.09,3C456.45,709.51,467.18,710.57,476.74,711.59Z"/><path class="cls-1" d="M707.57,729.39c9.3-.1,18.6,0,27.84-1.5A187.51,187.51,0,0,0,759.35,723a37.34,37.34,0,0,0,6.12-2.25c4.15-2.08,5.81-5.8,5.72-10.24s-1.87-8-5.93-10.18a12.26,12.26,0,0,0-9.67-.85,138.22,138.22,0,0,1-19.74,4.69,215.24,215.24,0,0,1-40.59,1.39c-7.33-.38-14.62-1.48-21.9-2.47-5.79-.79-11.58-1.71-17.29-2.95-11.46-2.49-20.22-8.94-26.57-18.79a82.32,82.32,0,0,1-8.94-18.21c-1.6-4.75-2.26-9.66-.59-14.55,1-3,2.4-5.95,3.67-8.9.77-1.78,1.86-3.46,2.47-5.29,2.63-8-2.26-15.23-10.48-15.64-4.83-.24-8.49,2.07-11,6-8,12.8-11,26.68-7.87,41.56,2.32,11,7.45,20.76,13.9,29.78,9.37,13.11,21.46,22.53,37.48,26.41a202.69,202.69,0,0,0,23,4.38C683.26,728.36,695.34,729.76,707.57,729.39Z"/><path class="cls-1" d="M476.74,711.59c-9.56-1-20.29-2.08-31-3.36-6.72-.81-13.42-1.82-20.09-3-18.84-3.29-33.67-13-44.52-28.67-6.11-8.82-11.35-18.23-13.47-28.85a55.88,55.88,0,0,1,6.43-39.92c2.16-3.76,4.9-7,9.55-7.78a12.17,12.17,0,0,1,11.55,3.85c3,3.25,3.34,7.24,2,11.3a27.53,27.53,0,0,1-2.74,5.55c-5.26,8.63-5.39,17.59-1.81,26.78a80.3,80.3,0,0,0,8.79,16.35,41.13,41.13,0,0,0,26.91,17.69c16.13,3.19,32.38,5.59,48.85,5.75,14.16.14,28.24-.85,42-4.8,3.08-.89,6.21-1.69,9.35-2.31a11.75,11.75,0,0,1,13,15.69,12.12,12.12,0,0,1-8.89,7.46q-9.51,2.38-19.1,4.47a149.17,149.17,0,0,1-25.64,2.83C484.59,710.77,481.28,711.19,476.74,711.59Z"/><path class="cls-1" d="M707.57,729.39c-12.23.37-24.31-1-36.41-2.53a202.69,202.69,0,0,1-23-4.38c-16-3.88-28.11-13.3-37.48-26.41-6.45-9-11.58-18.83-13.9-29.78-3.16-14.88-.16-28.76,7.87-41.56,2.46-3.93,6.12-6.24,11-6,8.22.41,13.11,7.69,10.48,15.64-.61,1.83-1.7,3.51-2.47,5.29-1.27,3-2.63,5.87-3.67,8.9-1.67,4.89-1,9.8.59,14.55a82.32,82.32,0,0,0,8.94,18.21c6.35,9.85,15.11,16.3,26.57,18.79,5.71,1.24,11.5,2.16,17.29,2.95,7.28,1,14.57,2.09,21.9,2.47a215.24,215.24,0,0,0,40.59-1.39,138.22,138.22,0,0,0,19.74-4.69,12.26,12.26,0,0,1,9.67.85c4.06,2.19,5.85,5.77,5.93,10.18s-1.57,8.16-5.72,10.24a37.34,37.34,0,0,1-6.12,2.25,187.51,187.51,0,0,1-23.94,4.92C726.17,729.36,716.87,729.29,707.57,729.39Z"/><path class="cls-1" d="M822.12,619.62c-2.16-3.65-4.19-7.39-6.22-11.12Q792.92,566.26,770,524c-12.23-22.65-24.26-45.42-36.44-68.09-8.65-16.1-17.42-32.12-26.12-48.19q-16.66-30.76-33.3-61.55c-10.53-19.51-21-39.07-31.52-58.58q-18.84-34.87-37.78-69.71c-8.36-15.46-16.61-31-25-46.46q-9.09-16.83-18.27-33.62Q544.89,107,528.14,76.33a12.6,12.6,0,0,0-1.65-2.62c-1.43-1.58-3-1.61-4.42,0a21.56,21.56,0,0,0-2.75,3.94q-10,18.12-19.87,36.28-17.55,32.45-35,64.94c-7.29,13.56-14.5,27.16-21.82,40.71-9,16.68-18.14,33.3-27.16,50-5.3,9.8-10.43,19.7-15.74,29.5-10,18.38-20,36.72-30,55.11q-7.68,14.13-15.31,28.3l-23.9,44.77-.42.8c-2.93,5.34-6.05,10.58-8.94,15.94-10.12,18.82-20.15,37.7-30.28,56.52-6.93,12.84-14,25.61-21,38.43q-16.35,30.15-32.65,60.34c-2.95,5.45-5.86,10.93-8.9,16.33a11.11,11.11,0,0,0-.68,9.9,15,15,0,0,0,8.16,8.89,110.18,110.18,0,0,0,13.76,5.44,127.34,127.34,0,0,0,44.31,5c9.1-.55,17.67-2.78,25.27-8.08a52.39,52.39,0,0,0,13.67-14c2.87-4.29,5.62-8.68,8.29-13.11,8.95-14.85,20.08-27.68,34.21-37.87,12.7-9.16,26.41-14.74,42.43-13.26a48.36,48.36,0,0,1,12.64,3.18,3.76,3.76,0,0,1,2.11,2c.44,1.4-1,1.86-2,2.43-1.68,1-3.42,1.9-5.09,2.91-11.14,6.72-16.48,17.08-17.66,29.6-1.35,14.48,2.8,27.77,10.28,40.06a56.46,56.46,0,0,0,35.09,26,127.1,127.1,0,0,0,14.6,2.47,45.65,45.65,0,0,0,8.56.64c6.07-.29,12.14-.84,18.19-1.44a94,94,0,0,0,25.13-5.7c22.55-8.85,42.89-20.95,58.14-40.41,5.67-7.23,11.68-14.21,17.68-21.18,7.76-9,17.63-15,28.76-18.91a36.73,36.73,0,0,1,11.39-2.5c7.49-.19,15-.31,22.14,2.35a17.94,17.94,0,0,1,3.14,1.36c1.26.77,1.39,1.85.25,2.79a15.65,15.65,0,0,1-3.53,2.09,34.1,34.1,0,0,0-13.52,11.45c-7.93,11.18-9.29,23.61-6.3,36.54a84.93,84.93,0,0,0,6.21,17.12c9.87,20.74,26.74,31.92,49.31,34.44a104.88,104.88,0,0,0,38.32-2.44,163.66,163.66,0,0,0,28.3-9.73,254.41,254.41,0,0,0,57.19-36.9,26.11,26.11,0,0,0,5.05-6C824.48,627.11,824.32,623.35,822.12,619.62Zm-379-345.78q4.8-9.15,9.72-18.25,14.34-26.53,28.72-53,9.75-18,19.44-36.1c5.09-9.52,10.06-19.11,15.18-28.62,1.74-3.23,3.67-6.37,5.7-9.44,1.53-2.31,2.85-2.27,4.58-.09a20.4,20.4,0,0,1,1.84,2.91q15.18,27.84,30.31,55.7,21.3,39.42,42.46,78.91c.92,1.71,1.7,3.52,2.63,5.23,1.57,2.87,1.16,5.51-.76,8s-3.78,4.93-5.65,7.4c-3.41,4.48-6.71,9-10.23,13.44-2.94,3.68-4,3.82-8.22,1.63-1.93-1-3.74-2.24-5.59-3.39q-6.75-4.16-13.47-8.34c-2.08-1.31-4.05-.62-5.87.37a34.43,34.43,0,0,0-4.46,3.21c-5.33,4.19-10.68,8.36-15.95,12.62a6.6,6.6,0,0,1-8.28.48c-2.26-1.37-4.45-2.85-6.68-4.26-5.73-3.63-11.43-7.3-17.21-10.83a42.44,42.44,0,0,0-5.31-2.34,48.68,48.68,0,0,0-5.26,2.23c-5.77,3.32-11.46,6.8-17.22,10.13-7.84,4.54-7.85,3-12.25-1.68-5.66-6-11.3-12.08-17-18.05A6.17,6.17,0,0,1,443.07,273.84ZM790.36,627.71c-4.34,3.22-8.75,6.36-13.28,9.28a192.14,192.14,0,0,1-36,18.7,105.1,105.1,0,0,1-30.43,7c-8.53.58-16.7,0-24.75-2.87a34.47,34.47,0,0,1-18.8-15.37,59.92,59.92,0,0,1-6.58-17,19.2,19.2,0,0,1,2.17-14.3,12.6,12.6,0,0,1,13.73-6.37c9.16,1.62,16.57,6.48,23.39,12.51a90.44,90.44,0,0,0,7.5,6c2.92,2.08,5.34.85,5.67-2.8a91.1,91.1,0,0,0,.56-9.62c-.07-6,.07-12-.7-17.86-.94-7.22-4.88-13-10.46-17.68C689.06,566.21,673.77,559,657,555c-5.06-1.21-10.47-1-15.72-1.47-17.09-.92-31.64,6-45.66,14.47-6.23,3.78-11.42,8.77-16.54,14-7.12,7.25-13,15.49-19.56,23.16-10.61,12.37-23,22.38-38,29.1a103.91,103.91,0,0,1-26.9,8.34,100.08,100.08,0,0,1-29.18.6C449.85,641,439.78,632.33,434.09,618c-2.19-5.5-3.84-11.1-2.78-17.12a25.64,25.64,0,0,1,1.17-4.66c2.46-6.43,8.33-9.63,15.21-8.29a36.77,36.77,0,0,1,16.52,7.37c3.48,2.83,6.94,5.69,10.41,8.53a33.19,33.19,0,0,0,3,2.33c3.34,2.11,5.88.91,6.29-3,.28-2.62.5-5.26.56-7.9.16-7,.72-14-1.17-20.9A29.94,29.94,0,0,0,475,560.3c-9.19-8.84-20.18-14.7-31.83-19.52a78.38,78.38,0,0,0-52-3.29c-11.76,3.23-22.26,9.19-32,16.49C343,566.16,330.29,581.46,320,598.86c-2.22,3.75-4.62,7.41-7.06,11-5.14,7.65-12.43,11.2-21.6,11.44A105.39,105.39,0,0,1,264,618.85a13.2,13.2,0,0,1-2-.56c-2.49-1-3.11-2.33-2.23-4.89a15.32,15.32,0,0,1,1.18-2.49q22.21-41.08,44.45-82.17c6.22-11.53,12.23-23.16,18.43-34.7,3.85-7.19,7.94-14.25,11.81-21.44q22-40.8,43.93-81.66c3.6-6.67,7.37-13.26,11-19.93q16.17-29.85,32.27-59.74c.82-1.51,1.6-3.06,2.53-4.51,1.6-2.5,3-2.77,5.37-.91a38.58,38.58,0,0,1,3.94,3.84c8.08,8.48,16.18,16.95,24.21,25.48a4.87,4.87,0,0,0,5.65,1.24,21.84,21.84,0,0,0,3.7-1.81c7.46-4.3,14.95-8.57,22.34-13,3.58-2.14,6.69-2,10.22.34,8.52,5.65,17.25,11,25.89,16.47,2.89,1.84,5.68,1.35,8.42-.33a23.45,23.45,0,0,0,2.23-1.62q8-6.27,16-12.58c4.75-3.75,5.76-3.83,11-.54,6,3.77,12.15,7.46,18.05,11.44,6.33,4.27,8.9,3.28,13.22-2.42,6.6-8.7,13.16-17.43,19.79-26.1,3.48-4.55,4.6-4.47,7.65.32.8,1.25,1.51,2.58,2.22,3.89q12.88,23.79,25.75,47.6c6.59,12.24,13.07,24.54,19.67,36.78q16.11,29.88,32.3,59.73,14.37,26.52,28.79,53,11.89,22,23.75,44,17,31.38,34,62.76c1,1.92,2,3.88,2.86,5.89C793.78,623.69,793.42,625.43,790.36,627.71Z"/><path class="cls-1" d="M326.26,415c-.45-1.43-1.16-1.94-1.73-3.34-.87-2.13-1.58-4.32-2.43-6.45-6.66-16.64-13.38-33.25-20-49.91q-21-53-41.93-106.09c-1.65-4.16-3.47-8.26-5.48-12.26-1.47-2.91-3.7-2.86-5.47-.09a16,16,0,0,0-1.31,2.81c-.75,1.92-1.38,3.9-2.15,5.82q-14.64,36.65-29.29,73.29Q197,367.6,177.65,416.44a18.52,18.52,0,0,0-1.25,3.93c-.38,2.31.62,3.7,3,4.11a37.49,37.49,0,0,0,6.16.61c12.88.05,25.76,0,38.64,0,7,0,7.78.81,7.83,7.66,0,6.21,0,12.42,0,18.63,0,5.69,1.65,7.31,7.44,7.4,3.33,0,6.67,0,10,0,7-.1,8.53-1.61,8.62-8.57.08-5.29,0-10.58,0-15.87,0-1.61,0-3.22.17-4.82.25-2.86,1.18-3.94,4-4.3a53.38,53.38,0,0,1,6.2-.25c7.48,0,14.95,0,22.43,0v.14c11.78.25,20.75.15,25.18,0a15.78,15.78,0,0,0,6.63-1.65c1.46-.73,3-1.54,3.78-3.29A7.28,7.28,0,0,0,326.26,415Zm-40.75-16c-3.9.17-7.81.06-11.72.07H252.08v.11c-9.42,0-18.83,0-28.25,0a58.38,58.38,0,0,1-6.88-.32c-2.2-.28-2.88-1.46-2.39-3.63a15.7,15.7,0,0,1,.72-2.3q6.45-16.32,12.94-32.63,10.18-25.59,20.42-51.15a26.71,26.71,0,0,1,1.55-3.45c1.1-1.88,2.56-1.94,3.63-.1a39.11,39.11,0,0,1,2.34,5q5.38,13.41,10.72,26.85,9.64,24.13,19.26,48.28c1,2.56,1.95,5.15,2.88,7.74C290.47,397.5,289.72,398.79,285.51,399Z"/></svg>